<svg xmlns="http://www.w3.org/2000/svg" width="463" height="480" fill="none"><path stroke="url(#a)" stroke-linecap="round" stroke-linejoin="round" stroke-width="5.03" d="M3-1v304.91c0 1.4.7 2.71 1.86 3.49L214 447"/><path stroke="url(#b)" stroke-linecap="round" stroke-linejoin="round" stroke-width="5.03" d="M27 1v287.87c0 1.4.7 2.72 1.88 3.5L287 463"/><path stroke="url(#c)" stroke-linecap="round" stroke-linejoin="round" stroke-width="5.03" d="M52-12v287.27c0 1.4.7 2.7 1.86 3.48L434 533"/><path stroke="url(#d)" stroke-linecap="round" stroke-linejoin="round" stroke-width="5.03" d="M77-26v288.06c0 1.4.7 2.71 1.88 3.49L460 518"/><path stroke="url(#e)" stroke-linecap="round" stroke-linejoin="round" stroke-width="5.03" d="M288 405v317.04c0 1.4-.7 2.7-1.85 3.47L77 866"/><path stroke="url(#f)" stroke-linecap="round" stroke-linejoin="round" stroke-width="5.03" d="M264 388v339.1c0 1.39-.7 2.7-1.86 3.47L52 871"/><path stroke="url(#g)" stroke-linecap="round" stroke-linejoin="round" stroke-width="5.03" d="M240 372v328.17c0 1.4-.7 2.72-1.87 3.5L27 844"/><path stroke="url(#h)" stroke-linecap="round" stroke-linejoin="round" stroke-width="5.03" d="M214 356v315.05c0 1.38-.69 2.68-1.83 3.46L3 817"/><defs><linearGradient id="a" x1="108.5" x2="108.5" y1="15.69" y2="447" gradientUnits="userSpaceOnUse"><stop stop-color="#F37EE4"/><stop offset="1" stop-color="#6137D3"/></linearGradient><linearGradient id="b" x1="132.78" x2="132.78" y1="1" y2="432.68" gradientUnits="userSpaceOnUse"><stop stop-color="#F37EE4"/><stop offset="1" stop-color="#6137D3"/></linearGradient><linearGradient id="c" x1="157.44" x2="157.44" y1="-12" y2="418.76" gradientUnits="userSpaceOnUse"><stop stop-color="#F37EE4"/><stop offset="1" stop-color="#6137D3"/></linearGradient><linearGradient id="d" x1="182.62" x2="182.62" y1="-26" y2="405.95" gradientUnits="userSpaceOnUse"><stop stop-color="#F37EE4"/><stop offset="1" stop-color="#6137D3"/></linearGradient><linearGradient id="e" x1="182.5" x2="182.5" y1="151.3" y2="663.5" gradientUnits="userSpaceOnUse"><stop stop-color="#FF1EE1"/><stop offset="1" stop-color="#A137D3"/></linearGradient><linearGradient id="f" x1="158" x2="158" y1="151.1" y2="649.05" gradientUnits="userSpaceOnUse"><stop stop-color="#F37EE4"/><stop offset="1" stop-color="#6137D3"/></linearGradient><linearGradient id="g" x1="133.5" x2="133.5" y1="147.96" y2="634.91" gradientUnits="userSpaceOnUse"><stop stop-color="#F37EE4"/><stop offset="1" stop-color="#6137D3"/></linearGradient><linearGradient id="h" x1="108.5" x2="108.5" y1="149.42" y2="621.43" gradientUnits="userSpaceOnUse"><stop stop-color="#F37EE4"/><stop offset="1" stop-color="#6137D3"/></linearGradient></defs></svg>