<svg xmlns="http://www.w3.org/2000/svg" width="232" height="468" fill="none"><path stroke="url(#a)" stroke-linecap="round" stroke-linejoin="round" stroke-width="6.09" d="M227.97 735.73v-450.3c0-1.7-.84-3.28-2.25-4.23L-101.4 63.05"/><path stroke="url(#b)" stroke-linecap="round" stroke-linejoin="round" stroke-width="6.09" d="M189.68 757.6V307.3c0-1.69-.85-3.27-2.26-4.21L-140.5 83.56"/><path stroke="url(#c)" stroke-linecap="round" stroke-linejoin="round" stroke-width="6.09" d="M151.38 779.5V329.2c0-1.7-.85-3.28-2.25-4.22l-327.94-219.53"/><path stroke="url(#d)" stroke-linecap="round" stroke-linejoin="round" stroke-width="6.09" d="M113.08 801.38v-450.3c0-1.7-.84-3.28-2.25-4.22l-327.94-219.53"/><path stroke="url(#e)" stroke-linecap="round" stroke-linejoin="round" stroke-width="6.09" d="M74.78 823.26v-450.3c0-1.7-.84-3.27-2.25-4.22L-255.4 149.22"/><path stroke="url(#f)" stroke-linecap="round" stroke-linejoin="round" stroke-width="6.09" d="M36.48 845.15v-450.3c0-1.7-.84-3.28-2.25-4.22L-293.7 171.1"/><path stroke="url(#g)" stroke-linecap="round" stroke-linejoin="round" stroke-width="6.09" d="M-1.81 867.03v-450.3c0-1.7-.85-3.28-2.26-4.22L-332 193"/><path stroke="url(#h)" stroke-linecap="round" stroke-linejoin="round" stroke-width="6.09" d="M-332 543.35v-660.6c0-1.7.85-3.28 2.25-4.22L-1.82-341"/><path stroke="url(#i)" stroke-linecap="round" stroke-linejoin="round" stroke-width="6.09" d="M-293.7 592.1V-95.36c0-1.7.84-3.28 2.25-4.22L36.48-319.1"/><path stroke="url(#j)" stroke-linecap="round" stroke-linejoin="round" stroke-width="6.09" d="M-255.4 563.38V-73.49c0-1.69.84-3.27 2.25-4.21L74.78-297.23"/><path stroke="url(#k)" stroke-linecap="round" stroke-linejoin="round" stroke-width="6.09" d="M-217.1 538.48V-51.6c0-1.7.84-3.28 2.25-4.22l327.93-219.53"/><path stroke="url(#l)" stroke-linecap="round" stroke-linejoin="round" stroke-width="6.09" d="M-178.8 538.48v-568.2c0-1.69.84-3.27 2.25-4.21l327.93-219.53"/><path stroke="url(#m)" stroke-linecap="round" stroke-linejoin="round" stroke-width="6.09" d="M-140.5 541.65V-7.83c0-1.7.84-3.28 2.24-4.22l327.94-219.53"/><path stroke="url(#n)" stroke-linecap="round" stroke-linejoin="round" stroke-width="6.09" d="M-102.21 540.21V17.59c0-1.69.83-3.26 2.22-4.2L227.97-209.7"/><defs><linearGradient id="a" x1="63.29" x2="63.29" y1="735.73" y2="63.05" gradientUnits="userSpaceOnUse"><stop stop-color="#F37EE4"/><stop offset="1" stop-color="#6137D3"/></linearGradient><linearGradient id="b" x1="24.58" x2="24.58" y1="757.61" y2="83.56" gradientUnits="userSpaceOnUse"><stop stop-color="#F37EE4"/><stop offset="1" stop-color="#6137D3"/></linearGradient><linearGradient id="c" x1="-13.71" x2="-13.71" y1="779.5" y2="105.45" gradientUnits="userSpaceOnUse"><stop stop-color="#F37EE4"/><stop offset="1" stop-color="#6137D3"/></linearGradient><linearGradient id="d" x1="-52.01" x2="-52.01" y1="801.38" y2="127.33" gradientUnits="userSpaceOnUse"><stop stop-color="#F37EE4"/><stop offset="1" stop-color="#6137D3"/></linearGradient><linearGradient id="e" x1="-90.31" x2="-90.31" y1="823.26" y2="149.22" gradientUnits="userSpaceOnUse"><stop stop-color="#F37EE4"/><stop offset="1" stop-color="#6137D3"/></linearGradient><linearGradient id="f" x1="-128.61" x2="-128.61" y1="845.15" y2="171.1" gradientUnits="userSpaceOnUse"><stop stop-color="#F37EE4"/><stop offset="1" stop-color="#6137D3"/></linearGradient><linearGradient id="g" x1="-166.91" x2="-166.91" y1="867.03" y2="192.99" gradientUnits="userSpaceOnUse"><stop stop-color="#F37EE4"/><stop offset="1" stop-color="#6137D3"/></linearGradient><linearGradient id="h" x1="-166.91" x2="-166.91" y1="333.05" y2="-341" gradientUnits="userSpaceOnUse"><stop stop-color="#6137D3"/><stop offset="1" stop-color="#FE35E4"/></linearGradient><linearGradient id="i" x1="-128.61" x2="-128.61" y1="592.11" y2="-319.12" gradientUnits="userSpaceOnUse"><stop stop-color="#F37EE4"/><stop offset="1" stop-color="#6137D3"/></linearGradient><linearGradient id="j" x1="-90.31" x2="-90.31" y1="563.38" y2="-297.23" gradientUnits="userSpaceOnUse"><stop stop-color="#F37EE4"/><stop offset="1" stop-color="#6137D3"/></linearGradient><linearGradient id="k" x1="-52.01" x2="-52.01" y1="523.44" y2="-275.35" gradientUnits="userSpaceOnUse"><stop stop-color="#FF1EE1"/><stop offset="1" stop-color="#A137D3"/></linearGradient><linearGradient id="l" x1="-13.71" x2="-13.71" y1="523.44" y2="-253.46" gradientUnits="userSpaceOnUse"><stop stop-color="#F37EE4"/><stop offset="1" stop-color="#6137D3"/></linearGradient><linearGradient id="m" x1="24.58" x2="24.58" y1="528.64" y2="-231.58" gradientUnits="userSpaceOnUse"><stop stop-color="#F37EE4"/><stop offset="1" stop-color="#6137D3"/></linearGradient><linearGradient id="n" x1="62.88" x2="62.88" y1="527.82" y2="-209.69" gradientUnits="userSpaceOnUse"><stop stop-color="#F37EE4"/><stop offset="1" stop-color="#6137D3"/></linearGradient></defs></svg>