<svg xmlns="http://www.w3.org/2000/svg" width="120" height="60" fill="none">
<path fill="#4E7896" d="M17.96 42.56s-1.77 1.08 1.23 1.38c3.6.46 5.53.39 9.52-.38 0 0 1.07.7 2.53 1.23-8.98 3.84-20.35-.23-13.28-2.23Zm-1.16-4.99s-1.92 1.46 1.08 1.77c3.92.38 7 .46 12.29-.62 0 0 .69.77 1.84 1.15-10.83 3.23-22.96.31-15.2-2.3ZM38 46.33s1.31 1.07-1.46 1.92c-5.14 1.53-21.58 2-26.19 0-1.61-.7 1.46-1.7 2.46-1.85 1-.23 1.54-.23 1.54-.23-1.77-1.23-11.76 2.54-5.07 3.6 18.35 3 33.48-1.3 28.72-3.45ZM18.8 32.35s-8.37 2-3 2.68c2.3.31 6.84.23 11.06-.07 3.46-.3 6.92-.92 6.92-.92s-1.23.53-2.08 1.07c-8.52 2.23-24.88 1.23-20.2-1.07 4-1.92 7.3-1.7 7.3-1.7Zm14.98 8.37c8.6-4.46 4.6-8.76 1.84-8.22-.69.15-1 .3-1 .3s.23-.45.77-.6c5.45-1.93 9.75 5.75-1.77 8.75 0 0 .08-.08.16-.23ZM19.65 52.85c8.3.54 20.97-.3 21.27-4.22 0 0-.61 1.54-6.83 2.69a69.13 69.13 0 0 1-20.97.3s1.07.93 6.53 1.23Z" />
<path fill="#F58219" d="M28.56 7s4.76 4.84-4.54 12.14c-7.45 5.91-1.7 9.29 0 13.13-4.37-3.92-7.52-7.37-5.37-10.6C21.8 16.91 30.47 14.6 28.55 7ZM26.1 29.04c2.22 2.54-.62 4.84-.62 4.84s5.69-2.92 3.07-6.53c-2.38-3.45-4.22-5.14 5.76-10.9 0 0-15.74 3.91-8.21 12.6Z" />
<path fill="#4E7896" d="M75.32 38.16V26.5c0-2.98-1.67-5-5.84-5-2.38 0-4.41.59-6.2 1.3l.6 2.15a14.1 14.1 0 0 1 4.77-.96c2.26 0 3.33.96 3.33 2.86v1.55H70.8c-5.72 0-8.34 2.15-8.34 5.6 0 2.86 1.79 4.53 5 4.53 2.03 0 3.58-.95 5-2.14l.25 1.78h2.62-.01Zm-3.34-3.81a5.75 5.75 0 0 1-3.7 1.67c-1.54 0-2.5-.96-2.5-2.62 0-1.67.96-2.86 4.77-2.86h1.43v3.81Zm14.54 3.81h-4.17l-5-16.32h3.57l3.1 10.01.71 2.98a57.49 57.49 0 0 0 3.22-12.99h3.57a67.82 67.82 0 0 1-5 16.33Zm19.3 0V26.5c0-2.98-1.67-5-5.84-5-2.39 0-4.41.59-6.2 1.3l.48 2.15c1.43-.48 3.1-.96 4.88-.96 2.27 0 3.34.96 3.34 2.86v1.55h-1.2c-5.71 0-8.33 2.15-8.33 5.6 0 2.86 1.67 4.53 4.88 4.53 2.15 0 3.7-.95 5.13-2.14l.23 1.78h2.63Zm-3.34-3.81a5.75 5.75 0 0 1-3.7 1.67c-1.54 0-2.5-.96-2.5-2.62 0-1.67.96-2.86 4.77-2.86h1.43v3.81ZM58.75 40.9a7.92 7.92 0 0 1-4.17 3.1l-1.55-1.9a7.94 7.94 0 0 0 2.86-2.75c.48-.83.6-2.02.6-4.76V16h3.57v18.35c0 3.7-.35 5.12-1.3 6.55Z" />
</svg>
