<svg width="17" height="25" viewBox="0 0 17 25" fill="none" xmlns="http://www.w3.org/2000/svg">
<path d="M8.48398 0.625C3.83998 0.625 0.0839844 4.381 0.0839844 9.025C0.0839844 15.325 8.48398 24.625 8.48398 24.625C8.48398 24.625 16.884 15.325 16.884 9.025C16.884 4.381 13.128 0.625 8.48398 0.625ZM2.48398 9.025C2.48398 5.713 5.17198 3.025 8.48398 3.025C11.796 3.025 14.484 5.713 14.484 9.025C14.484 12.481 11.028 17.653 8.48398 20.881C5.98798 17.677 2.48398 12.445 2.48398 9.025Z" fill="#848484"/>
<path d="M8.48438 12.0254C10.1412 12.0254 11.4844 10.6822 11.4844 9.02539C11.4844 7.36854 10.1412 6.02539 8.48438 6.02539C6.82752 6.02539 5.48438 7.36854 5.48438 9.02539C5.48438 10.6822 6.82752 12.0254 8.48438 12.0254Z" fill="#848484"/>
</svg>
