<svg width="120" height="60" viewBox="0 0 120 60" fill="none" xmlns="http://www.w3.org/2000/svg">
<path d="M17.9558 42.5618C17.9558 42.5618 16.1888 43.6368 19.1858 43.9448C22.7858 44.4048 24.7158 44.3288 28.7098 43.5608C28.7098 43.5608 29.7848 44.2508 31.2448 44.7908C22.2578 48.6308 10.8908 44.5608 17.9568 42.5638L17.9558 42.5618ZM16.8038 37.5698C16.8038 37.5698 14.8838 39.0298 17.8788 39.3368C21.7958 39.7208 24.8788 39.7968 30.1688 38.7228C30.1688 38.7228 30.8588 39.4908 32.0118 39.8748C21.1818 43.1008 9.04579 40.1818 16.8038 37.5708V37.5698ZM38.0038 46.3258C38.0038 46.3258 39.3098 47.4008 36.5438 48.2458C31.3978 49.7818 14.9608 50.2428 10.3518 48.2458C8.73879 47.5558 11.8118 46.5458 12.8098 46.4028C13.8098 46.1728 14.3458 46.1728 14.3458 46.1728C12.5798 44.9428 2.59379 48.7078 9.27579 49.7728C27.6328 52.7678 42.7638 48.4668 38.0018 46.3168L38.0038 46.3258ZM18.7998 32.3468C18.7998 32.3468 10.4278 34.3438 15.8038 35.0348C18.1078 35.3418 22.6398 35.2648 26.8638 34.9578C30.3198 34.6508 33.7768 34.0358 33.7768 34.0358C33.7768 34.0358 32.5468 34.5738 31.7028 35.1108C23.1768 37.3378 6.81679 36.3408 11.5028 34.0358C15.4968 32.1158 18.7998 32.3358 18.7998 32.3358V32.3468ZM33.7778 40.7188C42.3798 36.2638 38.3858 31.9628 35.6208 32.5008C34.9308 32.6548 34.6208 32.8078 34.6208 32.8078C34.6208 32.8078 34.8508 32.3478 35.3888 32.1938C40.8418 30.2738 45.1438 37.9538 33.6218 40.9498C33.6218 40.9498 33.6988 40.8728 33.7758 40.7198L33.7778 40.7188ZM19.6458 52.8538C27.9408 53.3918 40.6158 52.5468 40.9218 48.6298C40.9218 48.6298 40.3078 50.1658 34.0858 51.3178C27.0198 52.6238 18.2638 52.4698 13.1158 51.6248C13.1158 51.6248 14.1908 52.5468 19.6458 52.8548V52.8538Z" fill="#4E7896"/>
<path d="M28.5551 7C28.5551 7 33.3171 11.84 24.0231 19.136C16.5731 25.05 22.3231 28.43 24.0231 32.27C19.6451 28.353 16.4961 24.897 18.6461 21.67C21.7961 16.908 30.4741 14.604 28.5541 7H28.5551ZM26.0971 29.044C28.3241 31.579 25.4821 33.884 25.4821 33.884C25.4821 33.884 31.1661 30.964 28.5541 27.354C26.1741 23.898 24.3301 22.208 34.3141 16.447C34.3141 16.447 18.5681 20.364 26.0961 29.043L26.0971 29.044Z" fill="#F58219"/>
<path d="M75.3172 38.162V26.485C75.3172 23.505 73.6492 21.481 69.4792 21.481C67.0962 21.481 65.0692 22.077 63.2832 22.791L63.8792 24.936C65.1892 24.459 66.8592 23.983 68.6452 23.983C70.9092 23.983 71.9812 24.936 71.9812 26.843V28.393H70.7992C65.0792 28.393 62.4592 30.538 62.4592 33.993C62.4592 36.853 64.2462 38.521 67.4632 38.521C69.4892 38.521 71.0382 37.568 72.4672 36.376L72.7052 38.163H75.3252L75.3172 38.162ZM71.9792 34.35C70.7892 35.422 69.4772 36.018 68.2852 36.018C66.7352 36.018 65.7832 35.065 65.7832 33.398C65.7832 31.731 66.7362 30.538 70.5492 30.538H71.9792V34.351V34.35ZM86.5152 38.163H82.3452L77.3422 21.84H80.9172L84.0152 31.85L84.7302 34.83C86.2802 30.54 87.4702 26.132 87.9472 21.843H91.5212C90.5682 27.205 88.9012 33.043 86.5172 38.166L86.5152 38.163ZM105.817 38.163V26.485C105.817 23.505 104.149 21.481 99.9772 21.481C97.5942 21.481 95.5692 22.077 93.7812 22.791L94.2582 24.936C95.6882 24.459 97.3562 23.983 99.1432 23.983C101.407 23.983 102.479 24.936 102.479 26.843V28.393H101.289C95.5692 28.393 92.9492 30.538 92.9492 33.993C92.9492 36.853 94.6172 38.521 97.8342 38.521C99.9792 38.521 101.528 37.568 102.957 36.376L103.195 38.163H105.815H105.817ZM102.481 34.35C101.291 35.422 99.9792 36.018 98.7872 36.018C97.2372 36.018 96.2852 35.065 96.2852 33.398C96.2852 31.731 97.2382 30.538 101.051 30.538H102.481V34.351V34.35ZM58.7532 40.903C57.8002 42.333 56.3702 43.405 54.5832 44.001L53.0332 42.095C54.2252 41.38 55.4162 40.308 55.8932 39.355C56.3702 38.521 56.4892 37.329 56.4892 34.589V16H60.0642V34.35C60.0642 38.044 59.7062 39.473 58.7542 40.903H58.7532Z" fill="#4E7896"/>
</svg>
