<svg width="40" height="40" viewBox="0 0 40 40" fill="none" xmlns="http://www.w3.org/2000/svg">
<rect width="40" height="40" rx="7" fill="#3EB7F4"/>
<path d="M17.4286 28.1C17.4286 28.595 17.8143 29 18.2857 29H21.7143C22.1857 29 22.5714 28.595 22.5714 28.1V27.2H17.4286V28.1ZM20 11C16.6914 11 14 13.826 14 17.3C14 19.442 15.02 21.323 16.5714 22.466V24.5C16.5714 24.995 16.9571 25.4 17.4286 25.4H22.5714C23.0429 25.4 23.4286 24.995 23.4286 24.5V22.466C24.98 21.323 26 19.442 26 17.3C26 13.826 23.3086 11 20 11ZM22.4429 20.99L21.7143 21.53V23.6H18.2857V21.53L17.5571 20.99C16.4 20.144 15.7143 18.767 15.7143 17.3C15.7143 14.816 17.6343 12.8 20 12.8C22.3657 12.8 24.2857 14.816 24.2857 17.3C24.2857 18.767 23.6 20.144 22.4429 20.99Z" fill="white"/>
</svg>
