<svg width="21" height="20" viewBox="0 0 21 20" fill="none" xmlns="http://www.w3.org/2000/svg">
<path fill-rule="evenodd" clip-rule="evenodd" d="M0 2.32318C0 1.64978 0.234612 1.09424 0.703816 0.65655C1.17302 0.218843 1.78301 0 2.53374 0C3.27108 0 3.86763 0.215469 4.32344 0.646449C4.79265 1.09088 5.02726 1.66998 5.02726 2.38378C5.02726 3.03023 4.79936 3.56892 4.34355 3.9999C3.87435 4.44434 3.25766 4.66655 2.49352 4.66655H2.47341C1.73607 4.66655 1.13952 4.44434 0.683707 3.9999C0.227896 3.55547 0 2.99655 0 2.32318ZM0.260929 19.9999V6.5053H4.72513V19.9999H0.260929ZM11.6634 19.9996H7.19914C7.22595 15.9323 7.23936 12.7742 7.23936 10.5251C7.23936 8.27594 7.22595 6.93591 7.19914 6.50495H11.6634V8.4241L11.6432 8.4645H11.6634V8.4241C12.6286 6.92919 13.9759 6.18173 15.7053 6.18173C17.247 6.18173 18.487 6.69687 19.4254 7.72715C20.3639 8.75742 20.8331 10.2692 20.8331 12.2624V19.9996H16.3689V12.7876C16.3689 10.754 15.6181 9.7372 14.1167 9.7372C13.5402 9.7372 13.0609 9.89544 12.6789 10.2119C12.2968 10.5284 12.0119 10.9156 11.8242 11.3735C11.717 11.6294 11.6634 11.993 11.6634 12.4644V19.9996Z" fill="#6A72FB"/>
</svg>
