<svg width="24" height="38" viewBox="0 0 24 38" fill="none" xmlns="http://www.w3.org/2000/svg">
<path fill-rule="evenodd" clip-rule="evenodd" d="M12.1834 0.113037C11.2261 0.896304 9.81415 2.36222 8.63824 4.24795C7.46277 6.13297 6.5 8.47495 6.5 11V11.0282V11.0563V11.0846V11.1128V11.1411V11.1695V11.1978V11.2263V11.2547V11.2832V11.3117V11.3403V11.3689V11.3975V11.4262V11.4549V11.4837V11.5124V11.5413V11.5701V11.599V11.6279V11.6569V11.6859V11.7149V11.7439V11.773V11.8021V11.8313V11.8605V11.8897V11.919V11.9482V11.9776V12.0069V12.0363V12.0657V12.0951V12.1246V12.1541V12.1836V12.2132V12.2427V12.2724V12.302V12.3317V12.3614V12.3911V12.4209V12.4506V12.4804V12.5103V12.5401V12.57V12.6V12.6286C5.53 12.8296 4.36764 13.256 3.35162 14.0112C1.9916 15.0222 0.899902 16.6219 0.899902 19V23.1589C0.899902 23.5415 1.04665 23.8895 1.3328 24.1244C1.61322 24.3545 1.97485 24.4334 2.33235 24.3928C3.54203 24.2555 5.22034 24.0886 6.5 24.0256V24.0338V24.0538V24.0737V24.0936V24.1133V24.133V24.1527V24.1722V24.1917V24.2111V24.2304V24.2496V24.2688V24.2879V24.3069V24.3258V24.3446V24.3634V24.3821V24.4007V24.4192V24.4377V24.4561V24.4744V24.4926V24.5107V24.5287V24.5467V24.5646V24.5824V24.6001V24.6177V24.6353V24.6528V24.6701V24.6874V24.7047V24.7218V24.7389V24.7558V24.7727V24.7895V24.8062V24.8228V24.8394V24.8558V24.8722V24.8885V24.9047V24.9208V24.9368V24.9527V24.9686V24.9843V25V25.5H7H8.89012L8.50975 27.4019L8.39014 27.9999H9.00004H9.52472C8.98037 28.7527 8.50004 29.9105 8.50004 31.4999C8.50004 32.8557 9.15438 34.128 9.91273 35.1377C10.6761 36.1541 11.5894 36.964 12.2094 37.4068L12.25 37.3499L12.2906 37.4068C12.9106 36.964 13.824 36.1541 14.5873 35.1377C15.3457 34.128 16 32.8557 16 31.4999C16 29.9105 15.5197 28.7527 14.9754 27.9999H15.5H16.1099L15.9903 27.4019L15.61 25.5H17.5H18V25V24.9843V24.9686V24.9527V24.9368V24.9208V24.9047V24.8885V24.8722V24.8558V24.8394V24.8228V24.8062V24.7895V24.7727V24.7558V24.7389V24.7218V24.7047V24.6874V24.6701V24.6528V24.6353V24.6177V24.6001V24.5824V24.5646V24.5467V24.5287V24.5107V24.4926V24.4744V24.4561V24.4377V24.4192V24.4007V24.3821V24.3634V24.3446V24.3258V24.3069V24.2879V24.2688V24.2496V24.2304V24.2111V24.1917V24.1722V24.1527V24.133V24.1133V24.0936V24.0737V24.0538V24.0338V24.0256C19.2797 24.0886 20.958 24.2555 22.1676 24.3928C22.5251 24.4334 22.8868 24.3545 23.1672 24.1244C23.4534 23.8895 23.6001 23.5415 23.6001 23.1589V19C23.6001 16.6219 22.5084 15.0222 21.1484 14.0112C20.1324 13.256 18.97 12.8296 18 12.6286V12.6V12.57V12.5401V12.5103V12.4804V12.4506V12.4209V12.3911V12.3614V12.3317V12.302V12.2724V12.2427V12.2132V12.1836V12.1541V12.1246V12.0951V12.0657V12.0363V12.0069V11.9776V11.9482V11.919V11.8897V11.8605V11.8313V11.8021V11.773V11.7439V11.7149V11.6859V11.6569V11.6279V11.599V11.5701V11.5413V11.5124V11.4837V11.4549V11.4262V11.3975V11.3689V11.3403V11.3117V11.2832V11.2547V11.2263V11.1978V11.1695V11.1411V11.1128V11.0846V11.0563V11.0282V11C18 8.47495 17.0372 6.13297 15.8618 4.24795C14.6858 2.36222 13.2739 0.896304 12.3166 0.113037L12.25 0.194463L12.1834 0.113037ZM6.5 23.0246V23.0135V22.9901V22.9668V22.9433V22.9198V22.8962V22.8726V22.8489V22.8252V22.8014V22.7775V22.7535V22.7295V22.7055V22.6814V22.6572V22.633V22.6087V22.5843V22.5599V22.5354V22.5109V22.4863V22.4617V22.437V22.4122V22.3874V22.3625V22.3376V22.3126V22.2875V22.2624V22.2373V22.2121V22.1868V22.1615V22.1361V22.1107V22.0852V22.0597V22.0341V22.0084V21.9828V21.957V21.9312V21.9054V21.8794V21.8535V21.8275V21.8014V21.7753V21.7492V21.7229V21.6967V21.6704V21.644V21.6176V21.5911V21.5646V21.5381V21.5115V21.4848V21.4581V21.4314V21.4046V21.3777V21.3508V21.3239V21.2969V21.2699V21.2428V21.2157V21.1885V21.1613V21.1341V21.1068V21.0794V21.052V21.0246V20.9971V20.9696V20.942V20.9144V20.8868V20.8591V20.8313V20.8036V20.7757V20.7479V20.72V20.692V20.6641V20.636V20.608V20.5799V20.5517V20.5235V20.4953V20.4671V20.4388V20.4104V20.3821V20.3536V20.3252V20.2967V20.2682V20.2396V20.211V20.1824V20.1537V20.125V20.0963V20.0675V20.0387V20.0098V19.9809V19.952V19.9231V19.8941V19.865V19.836V19.8069V19.7778V19.7486V19.7194V19.6902V19.661V19.6317V19.6024V19.573V19.5437V19.5143V19.4848V19.4554V19.4259V19.3963V19.3668V19.3372V19.3076V19.278V19.2483V19.2186V19.1889V19.1591V19.1293V19.0995V19.0697V19.0398V19.0099V18.98V18.9501V18.9201V18.8901V18.8601V18.8301V18.8V18.7699V18.7398V18.7097V18.6795V18.6493V18.6191V18.5889V18.5586V18.5283V18.498V18.4677V18.4374V18.407V18.3766V18.3462V18.3158V18.2854V18.2549V18.2244V18.1939V18.1634V18.1328V18.1023V18.0717V18.0411V18.0105V17.9798V17.9492V17.9185V17.8878V17.8571V17.8264V17.7956V17.7649V17.7341V17.7033V17.6725V17.6417V17.6109V17.58V17.5492V17.5183V17.4874V17.4565V17.4256V17.3946V17.3637V17.3327V17.3018V17.2708V17.2398V17.2088V17.1778V17.1468V17.1157V17.0847V17.0536V17.0225V16.9915V16.9604V16.9293V16.8982V16.8671V16.8359V16.8048V16.7737V16.7425V16.7114V16.6802V16.649V16.6179V16.5867V16.5555V16.5243V16.4931V16.4619V16.4307V16.3994V16.3682V16.337V16.3058V16.2745V16.2433V16.212V16.1808V16.1495V16.1183V16.087V16.0558V16.0245V15.9933V15.962V15.9307V15.8995V15.8682V15.8369V15.8057V15.7744V15.7431V15.7118V15.6806V15.6493V15.618V15.5868V15.5555V15.5243V15.493V15.4617V15.4305V15.3992V15.368V15.3368V15.3055V15.2743V15.243V15.2118V15.1806V15.1494V15.1182V15.0869V15.0557V15.0246V14.9934V14.9622V14.931V14.8998V14.8687V14.8375V14.8064V14.7752V14.7441V14.713V14.6818V14.6507V14.6196V14.5886V14.5575V14.5264V14.4954V14.4643V14.4333V14.4022V14.3712V14.3402V14.3092V14.2782V14.2473V14.2163V14.1854V14.1544V14.1235V14.0926V14.0617V14.0309V14V13.9692V13.9383V13.9075V13.8767V13.8459V13.8151V13.7844V13.7536V13.7229V13.6922V13.6615V13.6528C5.69476 13.844 4.76119 14.2094 3.94819 14.8138C2.80821 15.6612 1.8999 16.978 1.8999 19V23.1589C1.8999 23.2805 1.94064 23.3296 1.96724 23.3514C1.99957 23.3779 2.07596 23.4155 2.21956 23.3992C3.43565 23.2612 5.16868 23.0878 6.5 23.0246ZM22.2804 23.3992C21.0644 23.2612 19.3313 23.0878 18 23.0246V23.0135V22.9901V22.9668V22.9433V22.9198V22.8962V22.8726V22.8489V22.8252V22.8014V22.7775V22.7535V22.7295V22.7055V22.6814V22.6572V22.633V22.6087V22.5843V22.5599V22.5354V22.5109V22.4863V22.4617V22.437V22.4122V22.3874V22.3625V22.3376V22.3126V22.2875V22.2624V22.2373V22.2121V22.1868V22.1615V22.1361V22.1107V22.0852V22.0597V22.0341V22.0084V21.9828V21.957V21.9312V21.9054V21.8794V21.8535V21.8275V21.8014V21.7753V21.7492V21.7229V21.6967V21.6704V21.644V21.6176V21.5911V21.5646V21.5381V21.5115V21.4848V21.4581V21.4314V21.4046V21.3777V21.3508V21.3239V21.2969V21.2699V21.2428V21.2157V21.1885V21.1613V21.1341V21.1068V21.0794V21.052V21.0246V20.9971V20.9696V20.942V20.9144V20.8868V20.8591V20.8313V20.8036V20.7757V20.7479V20.72V20.692V20.6641V20.636V20.608V20.5799V20.5517V20.5235V20.4953V20.4671V20.4388V20.4104V20.3821V20.3536V20.3252V20.2967V20.2682V20.2396V20.211V20.1824V20.1537V20.125V20.0963V20.0675V20.0387V20.0098V19.9809V19.952V19.9231V19.8941V19.865V19.836V19.8069V19.7778V19.7486V19.7194V19.6902V19.661V19.6317V19.6024V19.573V19.5437V19.5143V19.4848V19.4554V19.4259V19.3963V19.3668V19.3372V19.3076V19.278V19.2483V19.2186V19.1889V19.1591V19.1293V19.0995V19.0697V19.0398V19.0099V18.98V18.9501V18.9201V18.8901V18.8601V18.8301V18.8V18.7699V18.7398V18.7097V18.6795V18.6493V18.6191V18.5889V18.5586V18.5283V18.498V18.4677V18.4374V18.407V18.3766V18.3462V18.3158V18.2854V18.2549V18.2244V18.1939V18.1634V18.1328V18.1023V18.0717V18.0411V18.0105V17.9798V17.9492V17.9185V17.8878V17.8571V17.8264V17.7956V17.7649V17.7341V17.7033V17.6725V17.6417V17.6109V17.58V17.5492V17.5183V17.4874V17.4565V17.4256V17.3946V17.3637V17.3327V17.3018V17.2708V17.2398V17.2088V17.1778V17.1468V17.1157V17.0847V17.0536V17.0225V16.9915V16.9604V16.9293V16.8982V16.8671V16.8359V16.8048V16.7737V16.7425V16.7114V16.6802V16.649V16.6179V16.5867V16.5555V16.5243V16.4931V16.4619V16.4307V16.3994V16.3682V16.337V16.3058V16.2745V16.2433V16.212V16.1808V16.1495V16.1183V16.087V16.0558V16.0245V15.9933V15.962V15.9307V15.8995V15.8682V15.8369V15.8057V15.7744V15.7431V15.7118V15.6806V15.6493V15.618V15.5868V15.5555V15.5243V15.493V15.4617V15.4305V15.3992V15.368V15.3368V15.3055V15.2743V15.243V15.2118V15.1806V15.1494V15.1182V15.0869V15.0557V15.0246V14.9934V14.9622V14.931V14.8998V14.8687V14.8375V14.8064V14.7752V14.7441V14.713V14.6818V14.6507V14.6196V14.5886V14.5575V14.5264V14.4954V14.4643V14.4333V14.4022V14.3712V14.3402V14.3092V14.2782V14.2473V14.2163V14.1854V14.1544V14.1235V14.0926V14.0617V14.0309V14V13.9692V13.9383V13.9075V13.8767V13.8459V13.8151V13.7844V13.7536V13.7229V13.6922V13.6615V13.6528C18.8052 13.844 19.7388 14.2094 20.5518 14.8138C21.6918 15.6612 22.6001 16.978 22.6001 19V23.1589C22.6001 23.2805 22.5594 23.3296 22.5328 23.3514C22.5004 23.3779 22.424 23.4155 22.2804 23.3992ZM9.60994 26.9999L9.90992 25.5H12H12.5H14.5902L14.8901 26.9999H13.75H12.5H12H10.75H9.60994ZM12.25 1.38659C11.4218 2.1651 10.3826 3.34049 9.48678 4.77708C8.37058 6.56706 7.5 8.72507 7.5 11V11.0282V11.0563V11.0846V11.1128V11.1411V11.1695V11.1978V11.2263V11.2547V11.2832V11.3117V11.3403V11.3689V11.3975V11.4262V11.4549V11.4837V11.5124V11.5413V11.5701V11.599V11.6279V11.6569V11.6859V11.7149V11.7439V11.773V11.8021V11.8313V11.8605V11.8897V11.919V11.9482V11.9776V12.0069V12.0363V12.0657V12.0951V12.1246V12.1541V12.1836V12.2132V12.2427V12.2724V12.302V12.3317V12.3614V12.3911V12.4209V12.4506V12.4804V12.5103V12.5401V12.57V12.6V12.6299V12.6599V12.6899V12.7199V12.7499V12.78V12.8101V12.8402V12.8703V12.9005V12.9307V12.9609V12.9911V13.0214V13.0516V13.0819V13.1123V13.1426V13.173V13.2034V13.2338V13.2642V13.2946V13.3251V13.3556V13.3861V13.4166V13.4472V13.4777V13.5083V13.5389V13.5696V13.6002V13.6308V13.6615V13.6922V13.7229V13.7536V13.7844V13.8151V13.8459V13.8767V13.9075V13.9383V13.9692V14V14.0309V14.0617V14.0926V14.1235V14.1544V14.1854V14.2163V14.2473V14.2782V14.3092V14.3402V14.3712V14.4022V14.4333V14.4643V14.4954V14.5264V14.5575V14.5886V14.6196V14.6507V14.6818V14.713V14.7441V14.7752V14.8064V14.8375V14.8687V14.8998V14.931V14.9622V14.9934V15.0246V15.0557V15.0869V15.1182V15.1494V15.1806V15.2118V15.243V15.2743V15.3055V15.3368V15.368V15.3992V15.4305V15.4617V15.493V15.5243V15.5555V15.5868V15.618V15.6493V15.6806V15.7118V15.7431V15.7744V15.8057V15.8369V15.8682V15.8995V15.9307V15.962V15.9933V16.0245V16.0558V16.087V16.1183V16.1495V16.1808V16.212V16.2433V16.2745V16.3058V16.337V16.3682V16.3994V16.4307V16.4619V16.4931V16.5243V16.5555V16.5867V16.6179V16.649V16.6802V16.7114V16.7425V16.7737V16.8048V16.8359V16.8671V16.8982V16.9293V16.9604V16.9915V17.0225V17.0536V17.0847V17.1157V17.1468V17.1778V17.2088V17.2398V17.2708V17.3018V17.3327V17.3637V17.3946V17.4256V17.4565V17.4874V17.5183V17.5492V17.58V17.6109V17.6417V17.6725V17.7033V17.7341V17.7649V17.7956V17.8264V17.8571V17.8878V17.9185V17.9492V17.9798V18.0105V18.0411V18.0717V18.1023V18.1328V18.1634V18.1939V18.2244V18.2549V18.2854V18.3158V18.3462V18.3766V18.407V18.4374V18.4677V18.498V18.5283V18.5586V18.5889V18.6191V18.6493V18.6795V18.7097V18.7398V18.7699V18.8V18.8301V18.8601V18.8901V18.9201V18.9501V18.98V19.0099V19.0398V19.0697V19.0995V19.1293V19.1591V19.1889V19.2186V19.2483V19.278V19.3076V19.3372V19.3668V19.3963V19.4259V19.4554V19.4848V19.5143V19.5437V19.573V19.6024V19.6317V19.661V19.6902V19.7194V19.7486V19.7778V19.8069V19.836V19.865V19.8941V19.9231V19.952V19.9809V20.0098V20.0387V20.0675V20.0963V20.125V20.1537V20.1824V20.211V20.2396V20.2682V20.2967V20.3252V20.3536V20.3821V20.4104V20.4388V20.4671V20.4953V20.5235V20.5517V20.5799V20.608V20.636V20.6641V20.692V20.72V20.7479V20.7757V20.8036V20.8313V20.8591V20.8868V20.9144V20.942V20.9696V20.9971V21.0246V21.052V21.0794V21.1068V21.1341V21.1613V21.1885V21.2157V21.2428V21.2699V21.2969V21.3239V21.3508V21.3777V21.4046V21.4314V21.4581V21.4848V21.5115V21.5381V21.5646V21.5911V21.6176V21.644V21.6704V21.6967V21.7229V21.7492V21.7753V21.8014V21.8275V21.8535V21.8794V21.9054V21.9312V21.957V21.9828V22.0084V22.0341V22.0597V22.0852V22.1107V22.1361V22.1615V22.1868V22.2121V22.2373V22.2624V22.2875V22.3126V22.3376V22.3625V22.3874V22.4122V22.437V22.4617V22.4863V22.5109V22.5354V22.5599V22.5843V22.6087V22.633V22.6572V22.6814V22.7055V22.7295V22.7535V22.7775V22.8014V22.8252V22.8489V22.8726V22.8962V22.9198V22.9433V22.9668V22.9901V23.0135V23.0367V23.0599V23.083V23.1061V23.1291V23.152V23.1749V23.1977V23.2205V23.2431V23.2657V23.2883V23.3108V23.3332V23.3555V23.3778V23.4V23.4221V23.4442V23.4662V23.4882V23.51V23.5318V23.5536V23.5752V23.5968V23.6183V23.6398V23.6612V23.6825V23.7037V23.7249V23.746V23.767V23.788V23.8089V23.8297V23.8504V23.8711V23.8917V23.9122V23.9327V23.953V23.9733V23.9936V24.0137V24.0338V24.0538V24.0737V24.0936V24.1133V24.133V24.1527V24.1722V24.1917V24.2111V24.2304V24.2496V24.2688V24.2879V24.3069V24.3258V24.3446V24.3634V24.3821V24.4007V24.4192V24.4377V24.4561V24.4744V24.4926V24.5H12H12.5H17V24.4926V24.4744V24.4561V24.4377V24.4192V24.4007V24.3821V24.3634V24.3446V24.3258V24.3069V24.2879V24.2688V24.2496V24.2304V24.2111V24.1917V24.1722V24.1527V24.133V24.1133V24.0936V24.0737V24.0538V24.0338V24.0137V23.9936V23.9733V23.953V23.9327V23.9122V23.8917V23.8711V23.8504V23.8297V23.8089V23.788V23.767V23.746V23.7249V23.7037V23.6825V23.6612V23.6398V23.6183V23.5968V23.5752V23.5536V23.5318V23.51V23.4882V23.4662V23.4442V23.4221V23.4V23.3778V23.3555V23.3332V23.3108V23.2883V23.2657V23.2431V23.2205V23.1977V23.1749V23.152V23.1291V23.1061V23.083V23.0599V23.0367V23.0135V22.9901V22.9668V22.9433V22.9198V22.8962V22.8726V22.8489V22.8252V22.8014V22.7775V22.7535V22.7295V22.7055V22.6814V22.6572V22.633V22.6087V22.5843V22.5599V22.5354V22.5109V22.4863V22.4617V22.437V22.4122V22.3874V22.3625V22.3376V22.3126V22.2875V22.2624V22.2373V22.2121V22.1868V22.1615V22.1361V22.1107V22.0852V22.0597V22.0341V22.0084V21.9828V21.957V21.9312V21.9054V21.8794V21.8535V21.8275V21.8014V21.7753V21.7492V21.7229V21.6967V21.6704V21.644V21.6176V21.5911V21.5646V21.5381V21.5115V21.4848V21.4581V21.4314V21.4046V21.3777V21.3508V21.3239V21.2969V21.2699V21.2428V21.2157V21.1885V21.1613V21.1341V21.1068V21.0794V21.052V21.0246V20.9971V20.9696V20.942V20.9144V20.8868V20.8591V20.8313V20.8036V20.7757V20.7479V20.72V20.692V20.6641V20.636V20.608V20.5799V20.5517V20.5235V20.4953V20.4671V20.4388V20.4104V20.3821V20.3536V20.3252V20.2967V20.2682V20.2396V20.211V20.1824V20.1537V20.125V20.0963V20.0675V20.0387V20.0098V19.9809V19.952V19.9231V19.8941V19.865V19.836V19.8069V19.7778V19.7486V19.7194V19.6902V19.661V19.6317V19.6024V19.573V19.5437V19.5143V19.4848V19.4554V19.4259V19.3963V19.3668V19.3372V19.3076V19.278V19.2483V19.2186V19.1889V19.1591V19.1293V19.0995V19.0697V19.0398V19.0099V18.98V18.9501V18.9201V18.8901V18.8601V18.8301V18.8V18.7699V18.7398V18.7097V18.6795V18.6493V18.6191V18.5889V18.5586V18.5283V18.498V18.4677V18.4374V18.407V18.3766V18.3462V18.3158V18.2854V18.2549V18.2244V18.1939V18.1634V18.1328V18.1023V18.0717V18.0411V18.0105V17.9798V17.9492V17.9185V17.8878V17.8571V17.8264V17.7956V17.7649V17.7341V17.7033V17.6725V17.6417V17.6109V17.58V17.5492V17.5183V17.4874V17.4565V17.4256V17.3946V17.3637V17.3327V17.3018V17.2708V17.2398V17.2088V17.1778V17.1468V17.1157V17.0847V17.0536V17.0225V16.9915V16.9604V16.9293V16.8982V16.8671V16.8359V16.8048V16.7737V16.7425V16.7114V16.6802V16.649V16.6179V16.5867V16.5555V16.5243V16.4931V16.4619V16.4307V16.3994V16.3682V16.337V16.3058V16.2745V16.2433V16.212V16.1808V16.1495V16.1183V16.087V16.0558V16.0245V15.9933V15.962V15.9307V15.8995V15.8682V15.8369V15.8057V15.7744V15.7431V15.7118V15.6806V15.6493V15.618V15.5868V15.5555V15.5243V15.493V15.4617V15.4305V15.3992V15.368V15.3368V15.3055V15.2743V15.243V15.2118V15.1806V15.1494V15.1182V15.0869V15.0557V15.0246V14.9934V14.9622V14.931V14.8998V14.8687V14.8375V14.8064V14.7752V14.7441V14.713V14.6818V14.6507V14.6196V14.5886V14.5575V14.5264V14.4954V14.4643V14.4333V14.4022V14.3712V14.3402V14.3092V14.2782V14.2473V14.2163V14.1854V14.1544V14.1235V14.0926V14.0617V14.0309V14V13.9692V13.9383V13.9075V13.8767V13.8459V13.8151V13.7844V13.7536V13.7229V13.6922V13.6615V13.6308V13.6002V13.5696V13.5389V13.5083V13.4777V13.4472V13.4166V13.3861V13.3556V13.3251V13.2946V13.2642V13.2338V13.2034V13.173V13.1426V13.1123V13.0819V13.0516V13.0214V12.9911V12.9609V12.9307V12.9005V12.8703V12.8402V12.8101V12.78V12.7499V12.7199V12.6899V12.6599V12.6299V12.6V12.57V12.5401V12.5103V12.4804V12.4506V12.4209V12.3911V12.3614V12.3317V12.302V12.2724V12.2427V12.2132V12.1836V12.1541V12.1246V12.0951V12.0657V12.0363V12.0069V11.9776V11.9482V11.919V11.8897V11.8605V11.8313V11.8021V11.773V11.7439V11.7149V11.6859V11.6569V11.6279V11.599V11.5701V11.5413V11.5124V11.4837V11.4549V11.4262V11.3975V11.3689V11.3403V11.3117V11.2832V11.2547V11.2263V11.1978V11.1695V11.1411V11.1128V11.0846V11.0563V11.0282V11C17 8.72507 16.1294 6.56706 15.0132 4.77708C14.1174 3.34049 13.0782 2.1651 12.25 1.38659ZM12 27.9999H10.897C10.4309 28.3369 9.50004 29.4273 9.50004 31.4999C9.50004 32.5442 10.0123 33.6052 10.7123 34.5372C11.2049 35.193 11.7688 35.7559 12.25 36.1671C12.7313 35.7559 13.2951 35.193 13.7878 34.5372C14.4877 33.6052 15 32.5442 15 31.4999C15 29.4273 14.0692 28.3369 13.6031 27.9999H12.5H12ZM12.2998 8C10.9191 8 9.7998 9.11929 9.7998 10.5H14.7998C14.7998 9.11929 13.6805 8 12.2998 8ZM12.2998 13C11.2746 13 10.3936 12.383 10.0078 11.5H14.5918C14.206 12.383 13.325 13 12.2998 13ZM8.7998 10.5C8.7998 8.567 10.3668 7 12.2998 7C14.2328 7 15.7998 8.567 15.7998 10.5C15.7998 12.433 14.2328 14 12.2998 14C10.3668 14 8.7998 12.433 8.7998 10.5Z" fill="#16C080"/>
</svg>
