<svg width="647" height="1363" viewBox="0 0 647 1363" fill="none" xmlns="http://www.w3.org/2000/svg">
<g clip-path="url(#clip0)">
<path opacity="0.5" d="M568.012 1289.29C568.012 1301.29 577.738 1311.01 589.735 1311.01C601.732 1311.01 611.457 1301.29 611.457 1289.29C611.457 1277.29 601.732 1267.57 589.735 1267.57C577.738 1267.57 568.012 1277.29 568.012 1289.29Z" fill="#6A72FB"/>
<path d="M84.3525 809.947C84.3525 817.126 90.1728 822.947 97.3525 822.947C104.532 822.947 110.353 817.126 110.353 809.947C110.353 802.767 104.532 796.947 97.3525 796.947C90.1728 796.947 84.3525 802.767 84.3525 809.947Z" fill="#6A72FB"/>
<path opacity="0.7" d="M569.514 259.043C569.514 264.627 574.041 269.154 579.625 269.154C585.209 269.154 589.735 264.627 589.735 259.043C589.735 253.459 585.209 248.933 579.625 248.933C574.041 248.933 569.514 253.459 569.514 259.043Z" fill="#6A72FB"/>
<path opacity="0.3" d="M21.8187 40.5565C21.8187 44.5462 25.053 47.7804 29.0426 47.7804C33.0323 47.7804 36.2666 44.5462 36.2666 40.5565C36.2666 36.5668 33.0323 33.3325 29.0426 33.3325C25.053 33.3325 21.8187 36.5668 21.8187 40.5565Z" fill="#6A72FB"/>
<path opacity="0.8" d="M611.457 558.143C611.457 563.727 615.984 568.254 621.568 568.254C627.152 568.254 631.679 563.727 631.679 558.143C631.679 552.559 627.152 548.032 621.568 548.032C615.984 548.032 611.457 552.559 611.457 558.143Z" fill="#6A72FB"/>
<path opacity="0.8" d="M583.826 961.043C583.826 966.627 588.353 971.154 593.937 971.154C599.521 971.154 604.048 966.627 604.048 961.043C604.048 955.459 599.521 950.932 593.937 950.932C588.353 950.932 583.826 955.459 583.826 961.043Z" fill="#6A72FB"/>
<path opacity="0.3" d="M327.966 1354.15C327.966 1358.64 331.608 1362.29 336.101 1362.29C340.594 1362.29 344.236 1358.64 344.236 1354.15C344.236 1349.66 340.594 1346.01 336.101 1346.01C331.608 1346.01 327.966 1349.66 327.966 1354.15Z" fill="#6A72FB"/>
<path d="M-0.000244141 629.836C-0.000244141 635.861 4.88402 640.745 10.9091 640.745C16.9341 640.745 21.8184 635.861 21.8184 629.836C21.8184 623.811 16.9341 618.927 10.9091 618.927C4.88402 618.927 -0.000244141 623.811 -0.000244141 629.836Z" fill="#6A72FB"/>
<path opacity="0.8" d="M18.0024 1323.01C18.0024 1329.64 23.3736 1335.01 29.9993 1335.01C36.6249 1335.01 41.9961 1329.64 41.9961 1323.01C41.9961 1316.38 36.6249 1311.01 29.9993 1311.01C23.3736 1311.01 18.0024 1316.38 18.0024 1323.01Z" fill="#6A72FB"/>
<path opacity="0.3" d="M505.408 47.7805C505.408 51.7702 508.642 55.0045 512.632 55.0045C516.621 55.0045 519.855 51.7702 519.855 47.7805C519.855 43.7908 516.621 40.5565 512.632 40.5565C508.642 40.5565 505.408 43.7908 505.408 47.7805Z" fill="#6A72FB"/>
</g>
<defs>
<clipPath id="clip0">
<rect width="647" height="1363" fill="white"/>
</clipPath>
</defs>
</svg>
