<svg width="25" height="20" viewBox="0 0 25 20" fill="none" xmlns="http://www.w3.org/2000/svg">
<path fill-rule="evenodd" clip-rule="evenodd" d="M24.2105 2.36772C23.3198 2.76969 22.3625 3.0404 21.3577 3.16243C22.3836 2.53794 23.1715 1.5484 23.5417 0.369155C22.5824 0.947498 21.5191 1.36792 20.3873 1.59454C19.4824 0.613208 18.1902 0 16.7618 0C13.5549 0 11.1984 3.04143 11.9227 6.19873C7.79579 5.98852 4.13596 3.97867 1.68566 0.923913C0.384342 3.19319 1.01079 6.16181 3.22202 7.66509C2.40895 7.63843 1.64228 7.41181 0.973465 7.03343C0.918991 9.37244 2.56833 11.5607 4.9571 12.0478C4.25803 12.2406 3.49237 12.2857 2.7136 12.1339C3.34509 14.1397 5.17903 15.5989 7.35395 15.6399C5.26579 17.3041 2.63491 18.0476 0 17.7317C2.19811 19.1643 4.80982 20 7.61421 20C16.8364 20 22.0467 12.0826 21.732 4.98154C22.7024 4.26887 23.5447 3.37982 24.2105 2.36772Z" fill="#6A72FB"/>
</svg>
