<svg width="721" height="511" viewBox="0 0 721 511" fill="none" xmlns="http://www.w3.org/2000/svg">
<g filter="url(#filter0_d)">
<g clip-path="url(#clip0)">
<path d="M35.9961 32.2666C35.9961 28.4006 39.1301 25.2666 42.9961 25.2666H658.996C662.862 25.2666 665.996 28.4006 665.996 32.2666V438.267C665.996 442.133 662.862 445.267 658.996 445.267H42.9961C39.1301 445.267 35.9961 442.133 35.9961 438.267V32.2666Z" fill="white"/>
<path d="M35.9961 56.2666H665.996V438.267C665.996 442.133 662.862 445.267 658.996 445.267H42.9961C39.1301 445.267 35.9961 442.133 35.9961 438.267V56.2666Z" fill="#E0E0E0"/>
<g clip-path="url(#clip1)">
<rect x="35.9961" y="25.2666" width="630" height="31" fill="white"/>
</g>
</g>
</g>
<defs>
<filter id="filter0_d" x="0.996094" y="0.266602" width="720" height="510" filterUnits="userSpaceOnUse" color-interpolation-filters="sRGB">
<feFlood flood-opacity="0" result="BackgroundImageFix"/>
<feColorMatrix in="SourceAlpha" type="matrix" values="0 0 0 0 0 0 0 0 0 0 0 0 0 0 0 0 0 0 127 0"/>
<feOffset dx="10" dy="20"/>
<feGaussianBlur stdDeviation="22.5"/>
<feColorMatrix type="matrix" values="0 0 0 0 0 0 0 0 0 0 0 0 0 0 0 0 0 0 0.12 0"/>
<feBlend mode="normal" in2="BackgroundImageFix" result="effect1_dropShadow"/>
<feBlend mode="normal" in="SourceGraphic" in2="effect1_dropShadow" result="shape"/>
</filter>
<clipPath id="clip0">
<path d="M35.9961 32.2666C35.9961 28.4006 39.1301 25.2666 42.9961 25.2666H658.996C662.862 25.2666 665.996 28.4006 665.996 32.2666V438.267C665.996 442.133 662.862 445.267 658.996 445.267H42.9961C39.1301 445.267 35.9961 442.133 35.9961 438.267V32.2666Z" fill="white"/>
</clipPath>
<clipPath id="clip1">
<path d="M35.9961 25.2666H665.996V56.2666H35.9961V25.2666Z" fill="white"/>
</clipPath>
</defs>
</svg>
