<svg width="94" height="40" viewBox="0 0 94 40" fill="none" xmlns="http://www.w3.org/2000/svg">
<path d="M6.02393 12.8568H26.7914V29.946C26.7914 29.946 26.4747 31.4675 25.2699 31.4675C24.0646 31.4675 22.9556 31.4675 22.9556 31.4675V36.9525C22.9556 36.9525 22.8597 39.2667 20.6405 39.2667C18.4217 39.2667 18.3258 36.9525 18.3258 36.9525V31.6255H14.5221V37.1109C14.5221 37.1109 14.5533 39.203 12.1432 39.1713C12.1432 39.1713 9.92439 39.1405 9.92439 36.9525C9.92439 34.7645 9.92439 31.5305 9.92439 31.5305H7.67349C7.67349 31.5305 6.02393 31.6255 6.02393 29.8814C6.02393 28.1372 6.02393 12.8568 6.02393 12.8568Z" fill="#C5C5C5"/>
<path d="M28.1704 15.1072C28.1704 15.1072 28.1713 12.8563 30.4218 12.8563C32.6727 12.8563 32.6885 14.79 32.6885 15.1231C32.6885 15.456 32.6885 24.9356 32.6885 24.9356C32.6885 24.9356 32.9107 27.0518 30.5723 27.0518C28.2347 27.0518 28.1705 25.5065 28.1705 24.8405C28.1705 24.1745 28.1704 15.1072 28.1704 15.1072Z" fill="#C5C5C5"/>
<path d="M0 15.1072C0 15.1072 -2.00713e-07 12.8563 2.25132 12.8563C4.50223 12.8563 4.51806 14.79 4.51806 15.1231C4.51806 15.456 4.51806 24.9356 4.51806 24.9356C4.51806 24.9356 4.74021 27.0518 2.40133 27.0518C0.0633481 27.0518 0 25.5065 0 24.8405C0 24.1745 0 15.1072 0 15.1072Z" fill="#C5C5C5"/>
<path fill-rule="evenodd" clip-rule="evenodd" d="M21.433 4.05161L23.229 1.39293C23.5325 0.963633 23.1525 0.861558 23.1525 0.861558C22.8995 0.659671 22.6972 1.01378 22.6972 1.01378L20.8343 3.78463C19.5295 3.25106 18.0758 2.9493 16.5353 2.93431C14.9442 2.91852 13.4323 3.21407 12.0726 3.75954C11.5131 2.95241 10.0654 0.872134 9.96294 0.811415C9.83713 0.735333 9.65897 0.887971 9.65897 0.887971C9.33081 1.14095 9.48218 1.26717 9.48218 1.26717L11.3772 4.06487C8.47527 5.47076 6.40163 8.07925 6.00049 11.272H26.7847C26.3962 8.06952 24.3437 5.45398 21.433 4.05161ZM22.0374 7.3244C22.0374 7.96358 21.5196 8.48216 20.8805 8.48216C20.2413 8.48216 19.7231 7.96358 19.7231 7.3244C19.7231 6.6857 20.2413 6.16748 20.8805 6.16748C21.5196 6.16748 22.0374 6.68564 22.0374 7.3244ZM11.9846 8.48216C12.6233 8.48216 13.1416 7.96358 13.1416 7.3244C13.1416 6.68564 12.6233 6.16748 11.9846 6.16748C11.3455 6.16748 10.8269 6.6857 10.8269 7.3244C10.8269 7.96358 11.3455 8.48216 11.9846 8.48216Z" fill="#C5C5C5"/>
<path d="M41.3192 23.7844V22.0825H39.1048C39.1048 22.0825 37.3207 21.4055 37.4236 19.8267C37.4236 19.8267 37.5058 18.1252 38.9209 17.7359H42.652V23.7228H44.3328V16.0133H39.2279C39.2279 16.0133 36.0088 16.1985 35.8853 19.8891C35.8853 19.8891 35.9472 23.231 39.4742 23.7636L41.3192 23.7844Z" fill="#C5C5C5"/>
<path d="M86.1611 22.1608V23.7188L90.586 23.6577C90.586 23.6577 93.7993 23.4324 93.7606 19.8232C93.7606 19.8232 93.9533 16.2971 90.6058 15.9891H86.1994V17.6502H90.1443C90.1443 17.6502 92.2219 17.8341 92.0103 19.9666C92.0103 19.9666 92.2408 22.0988 90.048 22.1401L86.1611 22.1608Z" fill="#C5C5C5"/>
<path d="M55.5386 22.0695V23.6276L59.963 23.5664C59.963 23.5664 63.1764 23.3408 63.1376 19.7324C63.1376 19.7324 63.3303 16.2054 59.9823 15.8983H55.5768V17.5584H59.5208C59.5208 17.5584 61.5988 17.7441 61.3868 19.8757C61.3868 19.8757 61.6178 22.0079 59.4245 22.0488L55.5386 22.0695Z" fill="#C5C5C5"/>
<path d="M47.6953 23.7228H46.1372L46.1984 19.0068C46.1984 19.0068 46.424 15.5832 50.0325 15.6236C50.0325 15.6236 53.559 15.4186 53.8665 18.9861V23.6819H52.2064V19.4788C52.2064 19.4788 52.0217 17.264 49.8896 17.4901C49.8896 17.4901 47.7574 17.2437 47.7161 19.5812L47.6953 23.7228Z" fill="#C5C5C5"/>
<path d="M64.8939 17.6415V15.9867H69.2413C69.2413 15.9867 71.6321 16.0201 71.6321 18.7289C71.6321 18.7289 71.6994 20.1493 70.4281 21.0361C70.4281 21.0361 70.2935 21.1034 70.3872 21.2147C70.3982 21.2266 70.4114 21.2398 70.4281 21.253C70.5957 21.3867 71.398 21.9387 71.398 23.7445H69.726C69.726 23.7445 69.6257 21.6216 67.9366 21.6216H64.8438V19.7816H68.9906C68.9906 19.7816 69.9605 19.7319 69.9266 18.6445C69.9266 18.6445 70.0437 17.6248 68.79 17.6248L64.8939 17.6415Z" fill="#C5C5C5"/>
<path d="M77.1504 15.7362C74.9246 15.7362 73.1206 17.5362 73.1206 19.7563C73.1206 21.9782 74.9246 23.7777 77.1504 23.7777C79.3758 23.7777 81.1798 21.9782 81.1798 19.7563C81.1797 17.5362 79.3757 15.7362 77.1504 15.7362ZM77.1504 22.0728C75.8686 22.0728 74.8291 21.0359 74.8291 19.7563C74.8291 18.478 75.8686 17.4407 77.1504 17.4407C78.4318 17.4407 79.4704 18.478 79.4704 19.7563C79.4703 21.0359 78.4318 22.0728 77.1504 22.0728Z" fill="#C5C5C5"/>
<path d="M84.5573 16.0038H82.8018V23.7612H84.5573V16.0038Z" fill="#C5C5C5"/>
</svg>
