<svg width="24" height="28" viewBox="0 0 24 28" fill="none" xmlns="http://www.w3.org/2000/svg">
<path d="M0.900024 23.3237V20.3836H3.77829V11.7797C3.77829 9.86089 4.33022 8.12774 5.43407 6.58028C6.53792 5.03283 8.01832 4.05277 9.87526 3.64012V2.89734C9.87526 2.25772 10.0971 1.73159 10.5407 1.31893C10.9843 0.906279 11.5156 0.699951 12.1345 0.699951C12.7535 0.699951 13.2848 0.906279 13.7284 1.31893C14.172 1.73159 14.3938 2.25772 14.3938 2.89734V3.64012C16.2714 4.05277 17.7673 5.02767 18.8815 6.56481C19.9956 8.10194 20.5527 9.84025 20.5527 11.7797V20.3836H23.4V23.3237H0.900024ZM12.1655 27.1305C11.4227 27.1305 10.7779 26.8623 10.2312 26.3258C9.68441 25.7894 9.41103 25.1497 9.41103 24.407H14.889C14.889 25.1704 14.6208 25.8151 14.0843 26.3413C13.5479 26.8674 12.9083 27.1305 12.1655 27.1305ZM6.68751 20.3836H17.6125V11.7797C17.6125 10.2529 17.0864 8.95304 16.0341 7.88014C14.9819 6.80724 13.6923 6.27079 12.1655 6.27079C10.6387 6.27079 9.34397 6.80724 8.28139 7.88014C7.2188 8.95304 6.68751 10.2529 6.68751 11.7797V20.3836Z" fill="white"/>
</svg>
