<svg width="20" height="20" viewBox="0 0 20 20" fill="none" xmlns="http://www.w3.org/2000/svg">
<g clip-path="url(#clip0)">
<rect width="20" height="20" fill="white"/>
<path fill-rule="evenodd" clip-rule="evenodd" d="M18.8958 0.112305H1.10417C0.494167 0.112305 0 0.606471 0 1.21647V19.009C0 19.6181 0.494167 20.1123 1.10417 20.1123H10.6833V12.3673H8.07667V9.34897H10.6833V7.12314C10.6833 4.5398 12.2608 3.13314 14.5658 3.13314C15.67 3.13314 16.6183 3.21564 16.895 3.2523V5.9523L15.2967 5.95314C14.0433 5.95314 13.8008 6.54897 13.8008 7.42231V9.3498H16.79L16.4008 12.3681H13.8008V20.1123H18.8975C19.5058 20.1123 20 19.6181 20 19.0081V1.21647C20 0.606471 19.5058 0.112305 18.8958 0.112305Z" fill="#6A72FB"/>
</g>
<defs>
<clipPath id="clip0">
<rect width="20" height="20" fill="white"/>
</clipPath>
</defs>
</svg>
