<svg width="463" height="480" viewBox="0 0 463 480" fill="none" xmlns="http://www.w3.org/2000/svg">
<path d="M3 -1V303.914C3 305.313 3.69891 306.62 4.86275 307.397L214 447" stroke="url(#paint0_linear)" stroke-width="5.02529" stroke-linecap="round" stroke-linejoin="round"/>
<path d="M27 1V288.868C27 290.274 27.7055 291.586 28.8783 292.362L287 463" stroke="url(#paint1_linear)" stroke-width="5.02529" stroke-linecap="round" stroke-linejoin="round"/>
<path d="M52 -12V275.268C52 276.666 52.6976 277.972 53.8596 278.749L434 533" stroke="url(#paint2_linear)" stroke-width="5.02529" stroke-linecap="round" stroke-linejoin="round"/>
<path d="M77 -26V262.055C77 263.46 77.7042 264.771 78.8751 265.547L460 518" stroke="url(#paint3_linear)" stroke-width="5.02529" stroke-linecap="round" stroke-linejoin="round"/>
<path d="M288 405V722.038C288 723.433 287.305 724.736 286.147 725.514L77 866" stroke="url(#paint4_linear)" stroke-width="5.02529" stroke-linecap="round" stroke-linejoin="round"/>
<path d="M264 388V727.091C264 728.49 263.302 729.796 262.139 730.573L52 871" stroke="url(#paint5_linear)" stroke-width="5.02529" stroke-linecap="round" stroke-linejoin="round"/>
<path d="M240 372V700.173C240 701.575 239.298 702.885 238.13 703.661L27 844" stroke="url(#paint6_linear)" stroke-width="5.02529" stroke-linecap="round" stroke-linejoin="round"/>
<path d="M214 356V671.047C214 672.432 213.315 673.728 212.17 674.508L3.00001 817" stroke="url(#paint7_linear)" stroke-width="5.02529" stroke-linecap="round" stroke-linejoin="round"/>
<defs>
<linearGradient id="paint0_linear" x1="108.5" y1="15.6904" x2="108.5" y2="447" gradientUnits="userSpaceOnUse">
<stop stop-color="#F37EE4"/>
<stop offset="1" stop-color="#6137D3"/>
</linearGradient>
<linearGradient id="paint1_linear" x1="132.783" y1="1" x2="132.783" y2="432.676" gradientUnits="userSpaceOnUse">
<stop stop-color="#F37EE4"/>
<stop offset="1" stop-color="#6137D3"/>
</linearGradient>
<linearGradient id="paint2_linear" x1="157.441" y1="-12" x2="157.441" y2="418.762" gradientUnits="userSpaceOnUse">
<stop stop-color="#F37EE4"/>
<stop offset="1" stop-color="#6137D3"/>
</linearGradient>
<linearGradient id="paint3_linear" x1="182.615" y1="-26" x2="182.615" y2="405.951" gradientUnits="userSpaceOnUse">
<stop stop-color="#F37EE4"/>
<stop offset="1" stop-color="#6137D3"/>
</linearGradient>
<linearGradient id="paint4_linear" x1="182.5" y1="151.304" x2="182.5" y2="663.498" gradientUnits="userSpaceOnUse">
<stop stop-color="#FF1EE1"/>
<stop offset="1" stop-color="#A137D3"/>
</linearGradient>
<linearGradient id="paint5_linear" x1="158" y1="151.096" x2="158" y2="649.047" gradientUnits="userSpaceOnUse">
<stop stop-color="#F37EE4"/>
<stop offset="1" stop-color="#6137D3"/>
</linearGradient>
<linearGradient id="paint6_linear" x1="133.5" y1="147.957" x2="133.5" y2="634.908" gradientUnits="userSpaceOnUse">
<stop stop-color="#F37EE4"/>
<stop offset="1" stop-color="#6137D3"/>
</linearGradient>
<linearGradient id="paint7_linear" x1="108.5" y1="149.416" x2="108.5" y2="621.426" gradientUnits="userSpaceOnUse">
<stop stop-color="#F37EE4"/>
<stop offset="1" stop-color="#6137D3"/>
</linearGradient>
</defs>
</svg>
