<svg width="63" height="40" viewBox="0 0 63 40" fill="none" xmlns="http://www.w3.org/2000/svg">
<path d="M2.91937 3.19648C2.91937 3.87549 2.5059 4.37781 1.79661 4.37781C1.20594 4.37781 0.762695 3.87549 0.762695 3.19648C0.762695 2.54625 1.23523 2.01465 1.85568 2.01465C2.5059 2.01465 2.91937 2.54625 2.91937 3.19648ZM1.28437 38.7034V11.5427H2.3977V38.7034H1.28437Z" fill="#C4C4C4"/>
<path d="M39.4279 19.3515C39.4279 33.045 31.8261 39.2694 23.5052 39.2694C15.0051 39.2694 8.12158 32.5363 8.12158 19.9178C8.12158 6.96043 15.2448 2.69858e-08 24.1038 2.69858e-08C32.7831 -0.000496331 39.4279 6.84626 39.4279 19.3515ZM9.2498 19.6344C9.2498 30.0172 14.2819 38.0831 23.5578 38.0831C32.8983 38.0831 38.2555 29.7691 38.2555 19.5163C38.2555 10.0086 33.963 1.33173 24.1678 1.33173C14.3727 1.33173 9.2498 9.50128 9.2498 19.6344Z" fill="#C4C4C4"/>
<path d="M43.5141 35.7605C45.3819 37.0054 48.6057 38.2076 51.3784 38.2076C56.6408 38.2076 61.3209 34.5261 61.3209 29.1074C61.3209 24.0788 58.2033 21.455 52.9101 19.201C48.1729 17.1839 43.9137 14.9944 43.9137 9.61886C43.9137 4.01746 48.3268 0.0560303 54.3248 0.0560303C57.5501 0.0560303 59.9832 0.961387 61.1149 1.75357L60.6647 2.73041C59.7028 2.05189 57.1034 1.18723 54.2746 1.18723C47.9356 1.18723 45.1744 5.97708 45.1744 9.50321C45.1744 14.3735 48.9497 16.002 53.816 18.322C59.4745 21.0947 62.473 23.5387 62.473 28.8582C62.473 34.5733 58.3994 39.2127 51.1565 39.2127C48.157 39.2127 44.7058 38.1942 43.0083 36.8927L43.5141 35.7605Z" fill="#C4C4C4"/>
</svg>
