<svg width="111" height="23" viewBox="0 0 111 23" fill="none" xmlns="http://www.w3.org/2000/svg">
<path fill-rule="evenodd" clip-rule="evenodd" d="M51.2106 2.13154C51.2106 2.71599 51.4297 3.20876 51.8448 3.63278C52.2599 4.05679 52.7557 4.26308 53.3437 4.26308C53.9203 4.26308 54.4276 4.05679 54.8427 3.63278C55.2693 3.20876 55.4768 2.71599 55.4768 2.13154C55.4768 1.54708 55.2578 1.05431 54.8427 0.630293C54.4276 0.206278 53.9203 0 53.3437 0C52.7672 0 52.2714 0.206278 51.8448 0.630293C51.4182 1.05431 51.2106 1.54708 51.2106 2.13154ZM51.6373 22.7479H54.9926V7.99898H51.6373V22.7479ZM48.0861 22.7479H45.0306V20.6163C43.7161 22.1978 41.9404 22.9885 39.7266 22.9885C38.0662 22.9885 36.6941 22.5187 35.6102 21.579C34.5264 20.6392 33.9729 19.3901 33.9729 17.8201C33.9729 16.2502 34.5494 15.0812 35.714 14.3019C36.867 13.5227 38.4352 13.1331 40.4184 13.1331H44.7654V12.5371C44.7654 10.4171 43.5893 9.36273 41.2255 9.36273C39.7496 9.36273 38.2046 9.90135 36.6134 10.9786L35.1144 8.88141C37.0515 7.34577 39.2423 6.56653 41.6983 6.56653C43.5777 6.56653 45.1113 7.03638 46.2989 7.98757C47.4866 8.93871 48.0861 10.4285 48.0861 12.4683V22.7479ZM44.7308 16.8117V15.4594H40.9603C38.5389 15.4594 37.3398 16.2158 37.3398 17.7399C37.3398 18.5192 37.6396 19.1151 38.2392 19.5277C38.8388 19.9402 39.6689 20.1465 40.7413 20.1465C41.8136 20.1465 42.7475 19.8485 43.5432 19.2526C44.3272 18.6452 44.7308 17.8316 44.7308 16.8117ZM12.0538 22.7479H15.1094H15.1208V12.4798C15.1208 10.44 14.5213 8.95014 13.3337 7.99899C12.146 7.04782 10.6125 6.57797 8.73303 6.57797C6.89968 6.57797 5.21623 7.00199 3.67115 7.86149L3.63656 10.9786C5.22776 9.90135 6.77284 9.36274 8.24872 9.36274C10.6125 9.36274 11.7886 10.4171 11.7886 12.5371V13.1331H7.4416C5.45837 13.1331 3.89023 13.5227 2.73719 14.3019C1.57262 15.0812 0.996094 16.2501 0.996094 17.8201C0.996094 19.3901 1.54955 20.6392 2.63341 21.579C3.71727 22.5187 5.08939 22.9885 6.74978 22.9885C8.96363 22.9885 10.7393 22.1978 12.0538 20.6163V22.7479ZM11.754 15.4594V16.8117C11.754 17.8315 11.3505 18.6453 10.5548 19.2526C9.75919 19.8485 8.82524 20.1465 7.75292 20.1465C6.6806 20.1465 5.8504 19.9402 5.25083 19.5277C4.65124 19.1151 4.35145 18.5192 4.35145 17.7399C4.35145 16.2158 5.55061 15.4594 7.972 15.4594H11.754ZM20.1369 20.7309C21.7281 22.2322 23.6421 22.9885 25.8559 22.9885C28.3926 22.9885 30.6296 22.0145 32.5552 20.0548L30.5834 17.9003C29.269 19.2641 27.8623 19.9402 26.3749 19.9402C24.8874 19.9402 23.6306 19.436 22.6159 18.416C21.5897 17.4075 21.0824 16.1585 21.0824 14.6915C21.0824 13.2247 21.6012 12.0214 22.6275 11.0932C23.6537 10.1649 24.8759 9.69505 26.271 9.69505C27.6662 9.69505 29.0499 10.291 30.4335 11.4942L32.4168 9.06474C30.7679 7.40307 28.7386 6.57797 26.3403 6.57797C23.942 6.57797 21.9125 7.34577 20.2406 8.86993C18.5687 10.3941 17.7386 12.3881 17.7386 14.8176C17.7386 17.2471 18.5342 19.2182 20.1369 20.7309ZM70.0852 17.9807C70.0852 19.4934 69.5318 20.7082 68.4364 21.6249C67.341 22.5303 65.9342 22.9887 64.2162 22.9887C63.0631 22.9887 61.8525 22.7824 60.6072 22.3584C59.6848 22.0489 58.843 21.6479 58.082 21.1551V17.6026C59.6386 18.8173 61.1953 19.9977 64.3085 20.0779C65.0695 20.1008 65.6691 19.906 66.1072 19.5507C66.5453 19.2069 66.7645 18.76 66.7645 18.2214C66.7645 17.4192 65.7036 16.7087 63.5936 16.0669C63.5624 16.0558 63.5329 16.0452 63.5051 16.0352L63.505 16.0351L63.505 16.0351L63.5049 16.0351C63.3888 15.9932 63.3012 15.9615 63.2361 15.9523C59.9154 15.0584 58.2665 13.5572 58.2665 11.4601C58.2665 9.98171 58.843 8.80136 59.9845 7.90745C61.1376 7.0136 62.625 6.57812 64.4584 6.57812C65.8074 6.57812 67.0988 6.86462 68.3441 7.44904L68.4133 10.6807C67.1103 9.8213 65.7036 9.39728 64.1931 9.39728C63.3976 9.39728 62.7403 9.54621 62.2445 9.83271C61.7487 10.1192 61.495 10.5547 61.495 11.1392C61.495 11.6549 61.7602 12.033 62.2791 12.2737C62.6366 12.457 63.1439 12.6175 63.7896 12.7779C64.4353 12.9383 65.0118 13.0988 65.5076 13.2592C66.0034 13.4196 66.4877 13.603 66.9604 13.7978C67.4332 13.9927 67.929 14.2792 68.4709 14.6344C69.5548 15.3449 70.0852 16.468 70.0852 17.9807ZM80.1055 22.9887C82.5036 22.9887 84.4986 22.1979 86.1012 20.605C87.7039 19.0235 88.4994 17.0754 88.4994 14.7834C88.4994 12.4914 87.7039 10.5547 86.1012 8.96178C84.4986 7.36883 82.5036 6.57812 80.1055 6.57812C77.7066 6.57812 75.7124 7.36883 74.109 8.96178C72.5066 10.5432 71.7109 12.4914 71.7109 14.7834C71.7109 17.0754 72.5066 19.0121 74.109 20.605C75.7124 22.1979 77.7066 22.9887 80.1055 22.9887ZM80.1164 19.9977C78.6638 19.9977 77.4534 19.5163 76.5079 18.5422C75.5506 17.5682 75.0779 16.319 75.0896 14.7834C75.0896 13.2477 75.5623 11.9987 76.5079 11.0246C77.4534 10.0505 78.6521 9.56919 80.1164 9.56919C81.5698 9.56919 82.7803 10.0505 83.7258 11.0246C84.6713 11.9872 85.144 13.2477 85.144 14.7834C85.144 16.319 84.6713 17.5682 83.7258 18.5422C82.7803 19.5163 81.5698 19.9977 80.1164 19.9977ZM94.9902 5.48966V6.80755H98.9688V6.80705H100.975V1.81055H104.331V6.80705H108.528V9.50013H104.319V9.51155V17.6022C104.319 18.3586 104.515 18.966 104.918 19.4129C105.322 19.8599 105.876 20.089 106.602 20.089C107.317 20.089 108.009 19.7453 108.666 19.0348L110.05 21.4069C108.874 22.4613 107.571 22.9999 106.141 22.9999C104.711 22.9999 103.489 22.5071 102.486 21.5216C101.483 20.536 100.975 19.1952 100.975 17.522V9.52304H98.9688V9.50062H94.9902V22.7368H91.6348V9.5121H89.6289V6.80755H91.6348V5.58134C91.6348 3.9082 92.142 2.56739 93.1453 1.58184C94.1486 0.596291 95.3707 0.103516 96.8007 0.103516C96.9734 0.103516 97.1578 0.114976 97.3313 0.126435L97.2618 3.00287C96.5468 3.00287 95.9818 3.23206 95.5786 3.679C95.198 4.12594 94.9902 4.73331 94.9902 5.48966Z" fill="black"/>
</svg>
