<svg width="40" height="40" viewBox="0 0 40 40" fill="none" xmlns="http://www.w3.org/2000/svg">
<rect width="40" height="40" rx="7" fill="#5323E5"/>
<path d="M22.4993 13.3333V19.1666H14.3077L13.816 19.6583L13.3327 20.1416V13.3333H22.4993ZM23.3327 11.6666H12.4993C12.041 11.6666 11.666 12.0416 11.666 12.5V24.1666L14.9993 20.8333H23.3327C23.791 20.8333 24.166 20.4583 24.166 20V12.5C24.166 12.0416 23.791 11.6666 23.3327 11.6666ZM27.4993 15H25.8327V22.5H14.9993V24.1666C14.9993 24.625 15.3743 25 15.8327 25H24.9993L28.3327 28.3333V15.8333C28.3327 15.375 27.9577 15 27.4993 15Z" fill="white"/>
</svg>
