<svg width="248" height="205" viewBox="0 0 248 205" fill="none" xmlns="http://www.w3.org/2000/svg">
<path opacity="0.1" d="M117.362 204.5C173.695 204.5 219.362 158.833 219.362 102.5C219.362 46.167 173.695 0.5 117.362 0.5C61.0288 0.5 15.3618 46.167 15.3618 102.5C15.3618 158.833 61.0288 204.5 117.362 204.5Z" fill="#6A72FB"/>
<path opacity="0.4" d="M64.3098 138.143C76.302 138.143 86.0235 128.421 86.0235 116.429C86.0235 104.437 76.302 94.7153 64.3098 94.7153C52.3177 94.7153 42.5962 104.437 42.5962 116.429C42.5962 128.421 52.3177 138.143 64.3098 138.143Z" fill="#6A72FB"/>
<path opacity="0.5" d="M155.949 83.6743C164.079 83.6743 170.67 77.0835 170.67 68.9532C170.67 60.823 164.079 54.2321 155.949 54.2321C147.819 54.2321 141.228 60.823 141.228 68.9532C141.228 77.0835 147.819 83.6743 155.949 83.6743Z" fill="#6A72FB"/>
<path opacity="0.6" d="M165.886 166.849C173 166.849 178.767 161.082 178.767 153.968C178.767 146.854 173 141.087 165.886 141.087C158.772 141.087 153.005 146.854 153.005 153.968C153.005 161.082 158.772 166.849 165.886 166.849Z" fill="#6A72FB"/>
<path d="M65.4136 85.0905H169.198V150.599C169.198 154.258 166.232 157.224 162.573 157.224H72.0381C68.3795 157.224 65.4136 154.258 65.4136 150.599V85.0905Z" fill="#6A72FB"/>
<path d="M169.198 85.0905L119.406 50.4833C118.143 49.6057 116.468 49.6057 115.205 50.4833L65.4136 85.0905H169.198Z" fill="#6A72FB"/>
<path d="M65.4136 85.0905L116.465 120.573C116.971 120.924 117.64 120.924 118.146 120.573L169.198 85.0905H65.4136Z" fill="#545CE6"/>
<path d="M81.4927 49.0797C81.4927 45.8276 84.1292 43.1912 87.3813 43.1912H146.77C150.022 43.1912 152.658 45.8276 152.658 49.0797V96.587L116.782 121.537L81.4927 96.2714V49.0797Z" fill="white"/>
<path d="M158.341 147.655L118.312 116.342C117.507 115.713 116.375 115.718 115.575 116.354L76.2705 147.655" stroke="#545CE7" stroke-width="3.98336" stroke-linecap="round"/>
<path d="M122.217 121.918L116.945 117.785L112.273 121.52L122.217 121.918Z" fill="#6A72FB"/>
<path d="M143.804 87.3545H90.0721C89.0558 87.3545 88.2319 88.1783 88.2319 89.1946C88.2319 90.2109 89.0558 91.0348 90.0721 91.0348H143.804C144.82 91.0348 145.644 90.2109 145.644 89.1946C145.644 88.1783 144.82 87.3545 143.804 87.3545Z" fill="#E0E1F1"/>
<path d="M101.481 52.7599H91.1762C89.5501 52.7599 88.2319 54.0781 88.2319 55.7042V66.009C88.2319 67.635 89.5501 68.9532 91.1762 68.9532H101.481C103.107 68.9532 104.425 67.635 104.425 66.009V55.7042C104.425 54.0781 103.107 52.7599 101.481 52.7599Z" fill="#6A72FB"/>
<path d="M134.972 72.6335H90.0721C89.0558 72.6335 88.2319 73.4574 88.2319 74.4737C88.2319 75.49 89.0558 76.3138 90.0721 76.3138H134.972C135.988 76.3138 136.812 75.49 136.812 74.4737C136.812 73.4574 135.988 72.6335 134.972 72.6335Z" fill="#E0E1F1"/>
<path d="M120.25 79.9943H90.0721C89.0558 79.9943 88.2319 80.8181 88.2319 81.8344C88.2319 82.8507 89.0558 83.6745 90.0721 83.6745H120.25C121.267 83.6745 122.091 82.8507 122.091 81.8344C122.091 80.8181 121.267 79.9943 120.25 79.9943Z" fill="#E0E1F1"/>
<path d="M104.057 94.7155H90.0721C89.0558 94.7155 88.2319 95.5394 88.2319 96.5556C88.2319 97.5719 89.0558 98.3958 90.0721 98.3958H104.057C105.073 98.3958 105.897 97.5719 105.897 96.5556C105.897 95.5394 105.073 94.7155 104.057 94.7155Z" fill="#6A72FB"/>
<path d="M42.9338 55.7342L46.9632 67.0518L4.32227 17.0613L42.9338 55.7342Z" fill="#5358B3"/>
<path d="M19.468 68.7582C20.1035 70.6648 22.42 71.3884 24.0277 70.1826L61.6027 42.0013C63.3536 40.6881 63.1105 37.9913 61.1529 37.0125L3.2009 8.03653C1.44132 7.15673 -0.503588 8.84351 0.118523 10.7098L19.468 68.7582Z" fill="#9298FC"/>
<path d="M42.9329 55.7342L46.9622 67.0518L51.3963 49.6553L4.01465 11.2363L42.9329 55.7342Z" fill="#5A61CA"/>
<path d="M241.089 117.291C225.942 134.714 194.368 126.24 194.368 126.24L201.379 118.174C189.131 107.527 187.045 89.8653 196.727 78.7281C206.409 67.5901 224.188 67.1976 236.437 77.8448C248.685 88.492 250.771 106.154 241.089 117.291Z" fill="#CBCEFF"/>
<path d="M231.216 86.1593C230.213 85.2871 228.692 85.3936 227.821 86.3966L227.088 87.2384C223.254 85.3248 218.472 86.1438 215.527 89.5312L209.212 96.7976L206.135 96.581L206.13 96.5773C205.591 96.4997 205.046 96.6978 204.684 97.114C204.104 97.7807 204.175 98.7977 204.842 99.3779L221.797 114.116C222.463 114.696 223.48 114.625 224.061 113.958C224.422 113.542 224.543 112.973 224.386 112.446L223.744 109.43L230.06 102.164C233.005 98.777 233.15 93.9283 230.722 90.3967L231.453 89.5549C232.326 88.5519 232.219 87.0307 231.216 86.1593ZM209.844 105.853C208.685 107.187 208.827 109.22 210.161 110.38C211.495 111.54 213.529 111.398 214.689 110.064L209.844 105.853Z" fill="#6970E3"/>
</svg>
