<svg
  width="31"
  height="23"
  viewBox="0 0 31 23"
  fill="none"
  xmlns="http://www.w3.org/2000/svg"
>
  <path
    d="M7.7423 6.76155C7.34629 6.76155 7.02683 7.01573 6.9969 7.35464C6.96696 7.69356 7.24152 7.94774 7.63753 7.94774C8.03354 7.94774 8.353 7.69356 8.38293 7.35464C8.41287 7.01573 8.23731 6.76155 7.7423 6.76155ZM30.7575 7.35464C30.7724 7.18519 30.5969 6.931 30.4064 6.84627C30.2158 6.76155 29.9188 6.76155 29.7133 6.84627C29.4089 6.931 28.9138 6.931 28.7158 6.931C26.6858 4.13497 23.1424 2.77932 18.2913 2.77932C16.8063 2.77932 15.5117 2.86405 14.8187 2.86405C14.3836 2.18623 13.0258 0.74585 10.3527 0.74585C9.75869 0.74585 9.16467 0.74585 8.55569 0.915306C8.0532 1.00003 7.73374 1.25422 7.5058 1.59313C7.26289 2.1015 7.72048 2.52514 8.17808 2.94878C8.26211 3.11824 8.44515 3.28769 8.52918 3.45715C7.10573 3.88079 5.59996 5.23644 5.01514 6.25318H3.23309H3.13409C2.24307 6.25318 1.40615 6.76155 1.30886 7.86301L0.994539 11.4216C0.934668 12.0994 1.36981 12.7772 2.55784 12.7772H3.15185C3.15122 17.2678 7.96834 19.8944 9.7429 19.9791C9.81945 20.2333 9.46258 20.9111 9.34861 21.0806C9.02166 21.4195 8.99173 21.7584 9.1598 22.0973C9.23635 22.3515 9.60242 22.6904 10.6914 22.6904H13.4635C13.6615 22.6904 13.867 22.6057 13.9735 22.521C13.9735 22.521 14.9319 21.7584 15.3411 20.4875C16.2247 20.5722 17.1157 20.5722 17.8162 20.4875L17.5583 21.1653C17.5508 21.2501 17.3079 21.7584 17.6665 22.1821C17.8496 22.3515 18.1241 22.6057 18.7181 22.6057H21.2922C21.4902 22.6057 21.5967 22.521 21.8022 22.4362C22.1141 22.2668 28.718 18.1151 29.8675 12.9467C30.3441 10.9132 30.1519 9.72703 30.0978 9.21866C30.2118 9.04921 30.7742 8.28665 30.7575 7.35464ZM28.3848 9.55757C28.3848 9.55757 28.7975 10.4896 28.276 13.0314C27.3153 17.1831 22.1424 20.8264 21.0925 21.5042H19.0134L19.5367 20.0639C19.6506 19.8944 19.5741 19.6402 19.391 19.4708C19.208 19.3013 19.0175 19.2166 18.713 19.3013C18.713 19.3013 17.9135 19.386 16.8245 19.386C16.1314 19.386 15.4384 19.386 14.8519 19.3013C14.6539 19.3013 14.4559 19.3013 14.2429 19.4708C14.0374 19.5555 14.0225 19.725 14 19.9791C13.9327 20.7417 13.4843 21.3348 13.1648 21.589H10.6897C11.0391 20.9959 11.3195 20.0639 11.0748 19.4708C10.9143 19.0471 10.4342 18.8777 9.93919 18.8777C9.04817 18.8777 4.2086 16.5053 4.58279 12.2689C4.61272 11.93 4.34565 11.591 3.85064 11.591H2.56361C2.46461 11.591 2.3656 11.591 2.37309 11.5063L2.68741 7.94774C2.72483 7.5241 2.92283 7.5241 3.02184 7.5241H3.12084H5.4969C5.7939 7.5241 6.10588 7.35464 6.23481 7.01573C6.50017 6.25318 8.34037 4.47389 9.5284 4.47389C9.92441 4.47389 10.3429 4.2197 10.3803 3.79606C10.4476 3.03351 9.90602 2.44041 9.44843 2.01677C9.54743 2.01677 9.94344 2.01677 10.2404 2.01677C12.8145 2.01677 13.6474 3.79606 13.7464 3.79606C13.8229 4.05025 14.105 4.2197 14.5085 4.13497C14.5085 4.13497 16.3055 3.96552 18.2855 3.96552C22.6416 3.96552 25.8039 5.15171 27.4679 7.60883C27.552 7.77828 27.6435 7.86301 27.7425 7.86301L27.834 7.94774C28.1161 8.1172 28.5046 8.20193 29.0986 8.20193C28.8707 8.54084 28.6502 8.79502 28.6502 8.79502C28.3307 9.04921 28.3008 9.38812 28.3848 9.55757ZM21.6383 5.23644C17.8221 4.72807 15.0127 5.15171 14.9137 5.15171C14.5102 5.23644 14.1832 5.57535 14.2523 5.91427C14.3214 6.25318 14.6949 6.50736 15.0984 6.42263C15.0984 6.42263 17.7099 5.99899 21.3281 6.50736H21.4271C21.8231 6.50736 22.1425 6.25318 22.165 5.99899C22.3014 5.57535 22.0343 5.23644 21.6383 5.23644Z"
    fill="#5323E5"
  />
</svg>
