<svg width="31" height="25" viewBox="0 0 31 25" fill="none" xmlns="http://www.w3.org/2000/svg">
<path d="M8.05134 6.14222C7.66497 6.05538 7.29755 6.23332 7.19402 6.55742C7.09049 6.88152 7.30262 7.18972 7.68899 7.27656C8.07537 7.36341 8.44279 7.18546 8.54632 6.86137C8.64984 6.53727 8.5343 6.25077 8.05134 6.14222ZM30.3762 11.7679C30.428 11.6059 30.3125 11.3194 30.1452 11.1949C29.9779 11.0705 29.6881 11.0054 29.469 11.043C29.1534 11.0589 28.6704 10.9503 28.4772 10.9069C27.1097 7.73374 23.9499 5.63406 19.2168 4.57024C17.7679 4.24458 16.4864 4.04337 15.8102 3.8914C15.5343 3.13465 14.5254 1.43157 11.9174 0.845391C11.3378 0.715128 10.7583 0.584865 10.127 0.616652C9.61813 0.589124 9.2507 0.767066 8.95399 1.04774C8.60551 1.49047 8.95907 2.00415 9.31262 2.51782C9.35745 2.70158 9.49887 2.90705 9.5437 3.09081C8.06199 3.19199 6.29559 4.18443 5.50204 5.04818L3.76337 4.65739L3.66678 4.63568C2.79745 4.44028 1.86942 4.75275 1.53295 5.80607L0.445911 9.2091C0.238856 9.8573 0.514764 10.6141 1.67387 10.8746L2.25343 11.0048C1.26806 15.386 5.39194 19.005 7.10473 19.4768C7.12367 19.7416 6.62684 20.3246 6.47848 20.465C6.08518 20.724 5.98165 21.0481 6.07131 21.4156C6.09026 21.6804 6.3731 22.0913 7.43562 22.3301L10.1402 22.938C10.3334 22.9814 10.5525 22.9438 10.6749 22.8845C10.6749 22.8845 11.7772 22.3507 12.4552 21.2004C13.2987 21.4769 14.168 21.6723 14.87 21.7432L14.4698 22.348C14.4439 22.429 14.0954 22.8717 14.3524 23.3637C14.4938 23.5692 14.7059 23.8774 15.2855 24.0076L17.7969 24.5721C17.9901 24.6155 18.1126 24.5562 18.3316 24.5186C18.6732 24.4217 26.0267 21.8192 28.2817 17.0287C29.1926 15.1493 29.2652 13.9498 29.3239 13.4419C29.4722 13.3016 30.1881 12.6809 30.3762 11.7679ZM27.5783 13.3969C27.5783 13.3969 27.7765 14.3968 26.7103 16.7624C24.8625 20.6023 19.0166 23.0226 17.8436 23.4537L15.8151 22.9977L16.6415 21.7072C16.7899 21.5668 16.7709 21.302 16.6295 21.0966C16.4881 20.8911 16.3208 20.7666 16.0051 20.7825C16.0051 20.7825 15.2065 20.6899 14.144 20.4511C13.4678 20.2991 12.7917 20.1471 12.238 19.9358C12.0448 19.8924 11.8516 19.849 11.6067 19.9676C11.3876 20.0052 11.3359 20.1673 11.2582 20.4103C11.0253 21.1396 10.4577 21.6199 10.0903 21.7978L7.67549 21.2551C8.14644 20.753 8.62433 19.9052 8.51572 19.2729C8.45195 18.8243 8.02075 18.5537 7.53778 18.4452C6.66845 18.2498 2.46692 14.8739 3.76102 10.8226C3.86455 10.4985 3.6783 10.1093 3.19533 10.0008L1.93963 9.71852C1.84304 9.69681 1.74644 9.6751 1.77233 9.59407L2.85937 6.19104C2.98878 5.78592 3.18196 5.82934 3.27855 5.85105L3.37515 5.87276L5.69337 6.39381C5.98315 6.45894 6.32469 6.36202 6.52481 6.05964C6.95093 5.37384 9.13652 4.0414 10.2956 4.30192C10.682 4.38876 11.146 4.23253 11.2754 3.82741C11.5084 3.09819 11.11 2.40075 10.7564 1.88708C10.853 1.90879 11.2394 1.99563 11.5292 2.06076C14.0406 2.62523 14.463 4.54385 14.5596 4.56557C14.5785 4.83035 14.8165 5.05753 15.2288 5.06335C15.2288 5.06335 17.0192 5.29209 18.9511 5.7263C23.2011 6.68156 26.0264 8.53235 27.111 11.2946C27.1559 11.4783 27.2266 11.5811 27.3232 11.6028L27.3939 11.7055C27.6319 11.9327 27.9924 12.1006 28.5719 12.2308C28.2752 12.5115 28.0044 12.7111 28.0044 12.7111C27.637 12.8891 27.5334 13.2132 27.5783 13.3969ZM21.9436 7.70153C18.3318 6.36868 15.4978 6.16591 15.4012 6.1442C14.9889 6.13838 14.5956 6.39735 14.5887 6.74315C14.5817 7.08896 14.8905 7.41888 15.3027 7.4247C15.3027 7.4247 17.9435 7.58405 21.3622 8.87348L21.4588 8.89519C21.8451 8.98203 22.2126 8.80409 22.2902 8.56102C22.5162 8.17761 22.33 7.78838 21.9436 7.70153Z" fill="#5323E5"/>
</svg>
