<svg width="27" height="25" viewBox="0 0 27 25" fill="none" xmlns="http://www.w3.org/2000/svg">
<path d="M10.6668 11C13.6135 11 16.0002 8.61337 16.0002 5.66671C16.0002 2.72004 13.6135 0.333374 10.6668 0.333374C7.72016 0.333374 5.3335 2.72004 5.3335 5.66671C5.3335 8.61337 7.72016 11 10.6668 11ZM10.6668 3.00004C12.1335 3.00004 13.3335 4.20004 13.3335 5.66671C13.3335 7.13337 12.1335 8.33337 10.6668 8.33337C9.20016 8.33337 8.00016 7.13337 8.00016 5.66671C8.00016 4.20004 9.20016 3.00004 10.6668 3.00004Z" fill="white"/>
<path d="M2.66691 19.0001C2.96024 18.0401 7.08024 16.3334 10.6669 16.3334C10.6669 15.4001 10.8402 14.5067 11.1336 13.6801C7.49358 13.5467 0.000244141 15.3601 0.000244141 19.0001V21.6667H12.7202C12.0269 20.8934 11.4802 20.0001 11.1336 19.0001H2.66691Z" fill="white"/>
<path d="M23.2402 19.0267C23.7202 18.24 24.0002 17.32 24.0002 16.3333C24.0002 13.3867 21.6135 11 18.6668 11C15.7202 11 13.3335 13.3867 13.3335 16.3333C13.3335 19.28 15.7202 21.6667 18.6668 21.6667C19.6535 21.6667 20.5735 21.3733 21.3602 20.9067C22.6002 22.1467 23.5202 23.0667 24.7868 24.3333L26.6668 22.4533C24.6668 20.4533 25.6135 21.3867 23.2402 19.0267ZM18.6668 19C17.2002 19 16.0002 17.8 16.0002 16.3333C16.0002 14.8667 17.2002 13.6667 18.6668 13.6667C20.1335 13.6667 21.3335 14.8667 21.3335 16.3333C21.3335 17.8 20.1335 19 18.6668 19Z" fill="white"/>
</svg>
