<svg width="647" height="1363" viewBox="0 0 647 1363" fill="none" xmlns="http://www.w3.org/2000/svg">
<g clip-path="url(#clip0)">
<path opacity="0.5" d="M568.012 1289.29C568.012 1301.29 577.738 1311.01 589.735 1311.01C601.732 1311.01 611.457 1301.29 611.457 1289.29C611.457 1277.29 601.732 1267.57 589.735 1267.57C577.738 1267.57 568.012 1277.29 568.012 1289.29Z" fill="#6A72FB"/>
<path d="M495.023 14.6108C495.023 22.6801 501.564 29.2216 509.633 29.2216C517.703 29.2216 524.244 22.6801 524.244 14.6108C524.244 6.54149 517.703 0 509.633 0C501.564 0 495.023 6.54149 495.023 14.6108Z" fill="#6A72FB"/>
<path d="M89.7832 780.076C89.7832 787.256 95.6035 793.076 102.783 793.076C109.963 793.076 115.783 787.256 115.783 780.076C115.783 772.896 109.963 767.076 102.783 767.076C95.6035 767.076 89.7832 772.896 89.7832 780.076Z" fill="#6A72FB"/>
<path opacity="0.7" d="M611.457 19.1108C611.457 24.6948 615.984 29.2216 621.568 29.2216C627.152 29.2216 631.679 24.6948 631.679 19.1108C631.679 13.5267 627.152 9 621.568 9C615.984 9 611.457 13.5267 611.457 19.1108Z" fill="#6A72FB"/>
<path opacity="0.3" d="M166.009 62.2806C166.009 66.2703 169.243 69.5046 173.233 69.5046C177.223 69.5046 180.457 66.2703 180.457 62.2806C180.457 58.2909 177.223 55.0566 173.233 55.0566C169.243 55.0566 166.009 58.2909 166.009 62.2806Z" fill="#6A72FB"/>
<path opacity="0.3" d="M41.9951 124.964C41.9951 133.701 49.0781 140.784 57.8155 140.784C66.5528 140.784 73.6357 133.701 73.6357 124.964C73.6357 116.227 66.5528 109.144 57.8155 109.144C49.0781 109.144 41.9951 116.227 41.9951 124.964Z" fill="#6A72FB"/>
<path opacity="0.8" d="M611.457 558.143C611.457 563.727 615.984 568.254 621.568 568.254C627.152 568.254 631.679 563.727 631.679 558.143C631.679 552.559 627.152 548.032 621.568 548.032C615.984 548.032 611.457 552.559 611.457 558.143Z" fill="#6A72FB"/>
<path opacity="0.8" d="M583.826 961.043C583.826 966.627 588.353 971.154 593.937 971.154C599.521 971.154 604.048 966.627 604.048 961.043C604.048 955.459 599.521 950.932 593.937 950.932C588.353 950.932 583.826 955.459 583.826 961.043Z" fill="#6A72FB"/>
<path opacity="0.3" d="M327.966 1354.15C327.966 1358.64 331.608 1362.29 336.101 1362.29C340.594 1362.29 344.236 1358.64 344.236 1354.15C344.236 1349.66 340.594 1346.01 336.101 1346.01C331.608 1346.01 327.966 1349.66 327.966 1354.15Z" fill="#6A72FB"/>
<path d="M-0.000244141 629.836C-0.000244141 635.861 4.88402 640.745 10.9091 640.745C16.9341 640.745 21.8184 635.861 21.8184 629.836C21.8184 623.811 16.9341 618.927 10.9091 618.927C4.88402 618.927 -0.000244141 623.811 -0.000244141 629.836Z" fill="#6A72FB"/>
<path opacity="0.8" d="M18.0024 1323.01C18.0024 1329.64 23.3736 1335.01 29.9993 1335.01C36.6249 1335.01 41.9961 1329.64 41.9961 1323.01C41.9961 1316.38 36.6249 1311.01 29.9993 1311.01C23.3736 1311.01 18.0024 1316.38 18.0024 1323.01Z" fill="#6A72FB"/>
<path opacity="0.3" d="M631.679 101.92C631.679 105.909 634.913 109.144 638.903 109.144C642.893 109.144 646.127 105.909 646.127 101.92C646.127 97.9301 642.893 94.6958 638.903 94.6958C634.913 94.6958 631.679 97.9301 631.679 101.92Z" fill="#6A72FB"/>
</g>
<defs>
<clipPath id="clip0">
<rect width="647" height="1363" fill="white"/>
</clipPath>
</defs>
</svg>
