<svg width="647" height="1363" viewBox="0 0 647 1363" fill="none" xmlns="http://www.w3.org/2000/svg">
<circle opacity="0.5" cx="589.735" cy="1289.29" r="21.7223" transform="rotate(90 589.735 1289.29)" fill="#6A72FB"/>
<circle cx="509.633" cy="14.6108" r="14.6108" transform="rotate(90 509.633 14.6108)" fill="#6A72FB"/>
<circle cx="102.783" cy="780.076" r="13" transform="rotate(90 102.783 780.076)" fill="#6A72FB"/>
<circle opacity="0.7" cx="557.006" cy="257.383" r="10.1108" transform="rotate(90 557.006 257.383)" fill="#6A72FB"/>
<circle opacity="0.3" cx="173.233" cy="62.2806" r="7.22396" transform="rotate(90 173.233 62.2806)" fill="#6A72FB"/>
<circle opacity="0.3" cx="93.2109" cy="357.235" r="15.8203" transform="rotate(90 93.2109 357.235)" fill="#6A72FB"/>
<circle opacity="0.8" cx="621.568" cy="558.143" r="10.1108" transform="rotate(90 621.568 558.143)" fill="#6A72FB"/>
<circle opacity="0.8" cx="593.937" cy="961.043" r="10.1108" transform="rotate(90 593.937 961.043)" fill="#6A72FB"/>
<circle opacity="0.3" cx="336.101" cy="1354.15" r="8.1354" transform="rotate(90 336.101 1354.15)" fill="#6A72FB"/>
<circle cx="10.9091" cy="629.836" r="10.9093" transform="rotate(90 10.9091 629.836)" fill="#6A72FB"/>
<circle opacity="0.8" cx="29.9993" cy="1323.01" r="11.9968" transform="rotate(90 29.9993 1323.01)" fill="#6A72FB"/>
<circle opacity="0.3" cx="638.903" cy="101.92" r="7.22396" transform="rotate(90 638.903 101.92)" fill="#6A72FB"/>
</svg>
